<?xml version="1.0" encoding="UTF-8" standalone="no"?>
<!-- Generator: Adobe Illustrator 16.0.4, SVG Export Plug-In . SVG Version: 6.00 Build 0)  -->

<svg
   xmlns:dc="http://purl.org/dc/elements/1.1/"
   xmlns:cc="http://creativecommons.org/ns#"
   xmlns:rdf="http://www.w3.org/1999/02/22-rdf-syntax-ns#"
   xmlns:svg="http://www.w3.org/2000/svg"
   xmlns="http://www.w3.org/2000/svg"
   xmlns:sodipodi="http://sodipodi.sourceforge.net/DTD/sodipodi-0.dtd"
   xmlns:inkscape="http://www.inkscape.org/namespaces/inkscape"
   version="1.1"
   id="svg2"
   sodipodi:docname="CowTracking_1.svg"
   inkscape:export-filename="/home/stefan/cow-Logos.jpg"
   inkscape:version="0.91 r13725"
   inkscape:export-ydpi="90"
   inkscape:export-xdpi="90"
   x="0px"
   y="0px"
   width="415"
   height="120"
   viewBox="0 0 415 120"
   enable-background="new 0 0 415 700"
   xml:space="preserve"><metadata
     id="metadata415"><rdf:RDF><cc:Work
         rdf:about=""><dc:format>image/svg+xml</dc:format><dc:type
           rdf:resource="http://purl.org/dc/dcmitype/StillImage" /><dc:title></dc:title></cc:Work></rdf:RDF></metadata><defs
     id="defs413" /><sodipodi:namedview
     inkscape:cy="-196.89761"
     inkscape:cx="87.409373"
     inkscape:zoom="0.98655546"
     showgrid="false"
     guidetolerance="10"
     gridtolerance="10"
     objecttolerance="10"
     borderopacity="1"
     pagecolor="#ffffff"
     bordercolor="#666666"
     id="namedview72"
     inkscape:current-layer="svg2"
     inkscape:window-maximized="1"
     inkscape:window-y="27"
     inkscape:window-x="0"
     inkscape:window-height="1016"
     inkscape:window-width="1920"
     inkscape:pageshadow="2"
     inkscape:pageopacity="0"
     borderlayer="true" /><g
     id="flowRoot5428"
     transform="translate(0,-580)" /><g
     id="g4631-3-4-7"
     transform="translate(491.30798,-1108.2831)" /><g
     id="g64"
     transform="translate(1.0136278,-3.24581)"><path
       id="path27-9_4_"
       inkscape:connector-curvature="0"
       sodipodi:nodetypes="sscccsss"
       d="m 47.187,14.095 c -18.512,0 -33.459,14.962 -33.459,33.418 0,5.803 1.482,11.263 4.082,16.02 l 29.378,49.183 29.379,-49.183 c 2.601,-4.757 4.082,-10.217 4.082,-16.021 0,-18.456 -14.945,-33.418 -33.459,-33.418 l -0.003,0.001 z"
       style="fill:#e3001b;stroke:#000000;stroke-width:2.04220009" /><path
       id="path28-5_4_"
       inkscape:connector-curvature="0"
       d="m 53.626,69.751 c -2.727,0.039 -5.794,0.544 -9.209,1.689 -6.606,-1.385 -12.392,1.13 -16.543,4.286 -2.096,1.592 -3.787,3.35 -4.99,4.872 -0.604,0.762 -1.076,1.468 -1.427,2.069 -0.352,0.604 -0.582,1.085 -0.662,1.527 -0.053,0.311 0.156,0.605 0.467,0.659 0.128,0.021 0.26,-10e-4 0.374,-0.064 0,0 1.956,-1.017 3.734,-1.876 -1.071,1.816 -1.607,3.9 -2.292,6.773 -0.076,0.306 0.108,0.615 0.416,0.689 0.134,0.033 0.274,0.019 0.397,-0.047 0.715,-0.355 1.46,-1.041 2.311,-1.898 0.849,-0.86 1.773,-1.903 2.716,-2.945 0.963,-1.066 1.958,-2.128 2.869,-3.014 -0.225,0.713 -0.396,1.458 -0.52,2.23 -0.312,1.982 -0.389,4.069 -0.577,5.5 -0.038,0.312 0.187,0.599 0.497,0.635 0.138,0.019 0.271,-0.016 0.387,-0.092 2.002,-1.35 3.444,-4.479 5.458,-7.299 2.012,-2.818 4.432,-5.259 8.013,-5.416 3.65,-0.159 6.65,1.312 9.354,3.497 2.701,2.188 5.066,5.087 7.359,7.698 0.21,0.233 0.57,0.255 0.805,0.045 0.135,-0.12 0.204,-0.298 0.188,-0.479 -0.147,-1.438 -0.973,-4.014 -1.757,-6.332 -0.465,-1.364 -0.615,-1.746 -0.908,-2.546 0.964,0.851 2.046,2.008 3.209,3.336 1.779,2.032 3.746,4.361 5.882,6.204 0.238,0.206 0.598,0.183 0.805,-0.058 0.102,-0.115 0.148,-0.268 0.139,-0.418 -0.176,-2.53 -1.304,-5.378 -2.622,-7.768 -0.611,-1.104 -1.264,-2.089 -1.895,-2.911 1.998,0.912 4.267,2.14 5.779,3.021 0.271,0.162 0.621,0.075 0.783,-0.194 0.105,-0.178 0.107,-0.396 0.007,-0.577 -0.739,-1.309 -3.035,-5.164 -7.504,-7.901 -2.793,-1.703 -6.436,-2.961 -11.043,-2.895 l 0,0 z" /><path
       id="path30-5_4_"
       inkscape:connector-curvature="0"
       d="m 69.974,79.257 c -1.438,-0.343 -4.104,-2.803 -7.238,-2.722 2.363,1.624 5.282,8.188 5.991,10.878 -1.685,-1.428 -8.576,-10.326 -10.188,-9.495 -0.033,2.746 1.799,6.047 2.582,8.858 -1.846,-2.128 -3.777,-4.329 -6.012,-6.137 -2.83,-2.292 -6.13,-3.917 -10.115,-3.743 -4.077,0.179 -6.806,2.973 -8.889,5.891 -1.607,2.255 -2.932,4.601 -4.134,6.021 0.146,-4.19 0.331,-5.318 2.314,-9.017 -3.494,2.032 -6.14,4.979 -8.9,7.834 -0.29,0.294 -0.546,0.521 -0.807,0.757 -0.715,-1.798 1.685,-5.58 3.058,-7.256 -1.772,0.272 -3.771,1.195 -5.019,1.85 C 28.38,74.267 34.9,73.111 44.635,72.571 54.671,69.062 64.014,71.24 69.974,79.257 l 0,0 z"
       style="fill:#ffcc66" /><path
       id="path36-7_4_"
       inkscape:connector-curvature="0"
       d="m 56.027,26.904 c -4.729,-0.509 -6.224,0.035 -6.624,-2.149 -1.974,0.447 -3.633,-0.061 -4.217,-0.177 -1.226,0.208 -1.733,1.355 -4.507,-0.867 -0.708,-0.51 -0.201,0.827 0.157,1.974 -4.397,0.377 -14.696,-1.458 -14.771,13.854 0.139,0.236 0.213,0.585 0.248,1.117 0.036,0.533 0.042,1.255 0.047,2.206 0.01,1.608 0.024,2.492 0.155,3.251 0.131,0.758 0.365,1.385 0.823,2.481 0.295,0.707 0.574,1.53 0.808,2.38 -0.241,2.233 0.103,5.438 1.65,4.964 0.925,-0.282 2.941,-3.855 3.689,-4.238 0.807,-0.401 1.724,-0.8 2.655,-1.146 0.937,-0.35 1.878,-0.641 2.733,-0.827 1.643,-0.363 3.555,-0.609 5.575,-0.728 2.02,-0.115 4.15,-0.111 6.227,0 2.074,0.112 4.096,0.346 5.901,0.667 0.901,0.162 1.756,0.342 2.529,0.554 0.775,0.212 1.476,0.45 2.081,0.711 0.833,0.354 1.562,0.608 1.615,0.564 2.62,-3.214 2.509,-6.351 3.511,-9.81 0.24,-1.088 -0.104,-2.379 -0.017,-3.18 -0.104,-6.027 -5.737,-8.741 -10.268,-11.601 l 0,0 z"
       style="fill:#ffffff" /><path
       id="path38-1_4_"
       inkscape:connector-curvature="0"
       d="m 35.662,51.571 c 1.046,-0.413 2.12,-0.736 3.274,-0.982 1.157,-0.244 2.395,-0.405 3.789,-0.513 1.396,-0.104 2.94,-0.154 4.706,-0.146 1.986,0.008 3.749,0.072 5.312,0.188 1.562,0.115 2.926,0.288 4.146,0.527 1.221,0.24 2.297,0.544 3.261,0.924 0.967,0.38 1.818,0.827 2.609,1.363 0.736,0.5 1.233,0.887 1.692,1.407 0.459,0.521 0.877,1.18 1.489,2.215 0.695,1.172 1.07,1.815 1.273,2.446 0.203,0.634 0.24,1.249 0.295,2.405 0.045,0.955 0.045,1.663 -0.031,2.316 -0.076,0.651 -0.234,1.249 -0.479,2.009 -0.376,1.166 -0.814,2.224 -1.366,3.182 -0.552,0.958 -1.216,1.827 -1.988,2.625 -0.771,0.797 -1.647,1.519 -2.687,2.199 -1.036,0.682 -2.227,1.321 -3.571,1.938 -0.823,0.375 -1.588,0.687 -2.329,0.951 -0.741,0.268 -1.465,0.493 -2.221,0.676 -1.513,0.359 -3.143,0.573 -5.296,0.731 -1.956,0.089 -4.043,0.146 -6.118,0.073 -1.037,-0.035 -2.066,-0.104 -3.09,-0.22 -1.024,-0.116 -2.031,-0.275 -3.015,-0.499 -0.98,-0.226 -1.945,-0.507 -2.855,-0.865 -0.911,-0.358 -1.77,-0.798 -2.578,-1.319 -0.81,-0.521 -1.569,-1.136 -2.252,-1.848 -0.682,-0.711 -1.292,-1.521 -1.816,-2.448 -0.446,-0.815 -0.761,-1.503 -0.932,-2.111 -1.376,-4.259 -0.615,-1.19 -0.621,-3.693 -0.116,-0.101 0.053,-0.883 0.341,-1.788 0.289,-0.905 0.695,-1.924 1.012,-2.449 0.345,-0.575 1.24,-1.903 2.003,-2.947 l 1.383,-1.891 c 1.6,-1.779 2.06,-2.253 6.66,-4.456 l 0,0 z"
       style="fill:#ffaaaa" /><path
       id="path40-5_4_"
       inkscape:connector-curvature="0"
       d="m 24.156,60.716 c 1.769,-2.213 3.362,-3.531 3.616,-5.353 -6.547,-22.071 -2.613,-30.214 12.167,-29.897 0.13,-0.1 0.701,0.895 0.127,0.016 -1.529,-2.343 -2.817,-3.57 1.738,-1.79 0.673,0.263 1.315,0.605 1.496,0.611 0.182,0.005 0.479,-0.488 0.661,-1.098 0.251,-0.84 0.468,-1.104 0.9,-1.104 0.638,0 1.317,0.75 1.618,1.777 0.192,0.656 0.811,0.9 1.14,0.452 0.247,-0.336 3.959,-1.706 5.085,-1.317 0.888,0.306 -1.104,1.295 -1.595,2.165 -0.256,0.451 -0.39,0.927 -0.297,1.053 3.255,-0.937 6.882,0.104 9.961,1.31 2.95,1.423 6.42,5.12 7.037,11.244 -0.099,1.196 -0.686,3.761 -1.376,6.012 -0.73,2.391 -1.22,4.552 -1.244,5.521 -0.038,1.498 0.062,1.75 1.604,4.171 2.933,4.597 3.521,7.592 2.288,11.654 -1.574,5.188 -5.004,8.592 -11.12,11.028 -3.853,1.534 -6.089,1.893 -12.77,2.032 C 39.124,79.032 33.048,78.897 27.24,74.849 22.619,70.363 22.308,65.658 24.156,60.716 l 0,0 z m 23.432,17.068 c 4.311,-0.312 6.558,-0.843 9.852,-2.328 5.39,-2.429 8.114,-5.216 9.62,-9.833 0.49,-1.505 0.595,-2.394 0.505,-4.283 -0.107,-2.289 -0.173,-2.481 -1.562,-4.803 -1.229,-2.049 -1.713,-2.595 -3.188,-3.584 -3.165,-2.126 -7.377,-2.944 -15.321,-2.977 -7.062,-0.029 -10.655,0.727 -14.908,3.137 -1.016,0.574 -1.608,0.783 -1.687,0.592 -0.312,-0.795 4.568,-3.229 7.99,-3.983 6.571,-1.45 17.452,-0.859 22.312,1.212 0.833,0.354 1.558,0.607 1.609,0.562 0.051,-0.045 -0.035,-0.598 -0.193,-1.229 -0.16,-0.631 -0.242,-1.515 -0.185,-1.959 l 0.107,-0.812 0.474,0.858 c 0.312,0.562 0.521,0.729 0.604,0.491 2.769,-7.978 5.611,-13.728 -2.783,-18.989 -2.246,-1.151 -4.205,-2.928 -7.737,-2.729 -2.468,0.14 -3.603,0.47 -4.45,0.112 -0.215,-0.09 -0.067,-0.672 0.162,-1.138 0.345,-0.694 0.344,-0.812 -0.01,-0.812 -0.229,0 -0.851,0.324 -1.386,0.72 -1.059,0.78 -1.558,0.721 -1.717,-0.209 -0.153,-0.899 -0.83,-0.943 -0.83,-0.055 0,1.106 -0.455,1.147 -1.822,0.163 -1.415,-1.02 -2.612,-2.626 -1.754,-1.212 1.027,1.698 0.757,2.404 -1.867,2.351 -9.076,-0.188 -12.41,5.224 -12.932,11.771 -0.113,1.418 -0.039,2.385 -0.136,4.037 0.019,3.217 0.072,3.544 0.987,5.735 0.59,1.414 1.116,3.323 1.341,4.868 l 0.37,2.543 -1.383,1.879 c -0.761,1.033 -1.666,2.347 -2.011,2.914 -0.632,1.038 -1.585,4.005 -1.354,4.2 -0.066,2.82 0.699,3.843 1.562,5.739 4.197,7.361 13.897,7.402 21.721,7.051 l 0,0 z M 40.145,60.493 c -0.471,-0.87 0.011,-2.281 0.987,-2.891 0.744,-0.465 0.825,-0.471 1.531,-0.08 0.929,0.513 0.996,1.646 0.166,2.792 -0.753,1.04 -2.167,1.134 -2.684,0.179 l 0,0 z m 17.626,-0.179 c -0.672,-0.707 -0.689,-1.438 -0.065,-2.521 0.482,-0.842 0.792,-1.097 1.321,-1.097 1.098,0 1.957,0.942 1.771,1.937 -0.286,1.502 -2.19,2.561 -3.027,1.681 l 0,0 z M 39.617,43.201 c -0.734,-0.618 -0.812,-2.805 -0.131,-3.625 1.416,-1.701 3.176,0.792 2.152,3.053 -0.514,1.142 -1.134,1.318 -2.021,0.572 l 0,0 z M 51.42,42.052 c -1.09,-1.4 -0.811,-3.76 0.449,-3.76 0.762,0 1.41,0.896 1.633,2.248 0.32,1.962 -0.991,2.912 -2.082,1.512 l 0,0 z" /><g
       id="g42-2_4_"
       transform="matrix(1.2609,-0.19272,0.16828,1.2609,-137.04,61.835)"><path
         id="path44-3_4_"
         inkscape:connector-curvature="0"
         d="m 125.09,-18.976 c 2.572,-0.409 1.042,6.464 5.441,9.539 4.166,2.908 8.201,2.181 6.915,5.334 -1.45,3.551 -7.875,0.531 -11.776,-4.483 -1.399,-2.896 -1.748,-10.083 -0.58,-10.39 l 0,0 z"
         style="fill:#ffcc66;stroke:#000000;stroke-width:1.99759996" /></g><path
       id="path46-8_4_"
       inkscape:connector-curvature="0"
       d="m 72.352,13.295 c -3.266,-0.814 -0.138,6.27 -5.44,10.603 -4.604,3.761 -12.29,2.008 -10.193,5.888 2.561,4.735 11,1.215 15.521,-4.411 2.051,-3.556 1.584,-11.555 0.112,-12.08 l 0,0 z"
       style="fill:#ffcc66;stroke:#000000;stroke-width:2.54439998" /><g
       id="g48-7_4_"
       transform="matrix(0.9593907,0,0,0.89651851,-203.87261,712.44006)"><path
         id="path50-2_4_"
         inkscape:connector-curvature="0"
         d="m 292.273,-763.014 c -1.347,-10e-4 -2.728,0.178 -4.127,0.548 -1.397,0.369 -2.801,0.293 -4.175,0.998 -1.377,0.705 -2.735,1.567 -4.024,2.571 -1.286,1.003 -2.763,1.973 -3.885,3.235 -0.714,0.8 -1.601,1.632 -1.763,1.632 -2.691,1.868 -3.89,6.909 5.094,6.532 0.139,-0.181 0.356,-0.315 0.644,-0.423 0.288,-0.108 0.646,-0.182 1.114,-0.254 1.176,-0.173 3.108,-0.781 5.118,-1.559 2.01,-0.779 4.105,-1.724 5.57,-2.571 1.668,-0.964 3.002,-1.864 4.076,-2.742 1.071,-0.877 1.87,-1.733 2.452,-2.611 0.309,-0.465 0.554,-0.912 0.716,-1.329 0.162,-0.417 0.244,-0.813 0.261,-1.181 0.017,-0.368 -0.032,-0.696 -0.157,-1.011 -0.124,-0.316 -0.311,0.018 -0.574,-0.24 -0.263,-0.258 -0.592,-0.498 -0.99,-0.696 -0.397,-0.198 -0.863,-0.369 -1.393,-0.505 -1.063,-0.266 -2.39,-0.392 -3.957,-0.394 l 0,0 0,0 z"
         style="fill:#ffffff" /><path
         id="path52-1_4_"
         inkscape:connector-curvature="0"
         d="m 290.378,-758.375 c 0.922,-0.024 1.684,0.096 1.748,0.259 0.063,0.16 -0.196,0.716 -0.582,1.23 -0.203,0.272 -0.561,0.572 -1.034,0.89 -0.474,0.318 -1.074,0.65 -1.731,0.974 -1.319,0.643 -2.916,1.248 -4.451,1.649 -1.491,0.39 -2.631,0.635 -3.4,0.711 -0.383,0.039 -0.68,0.024 -0.873,-0.015 -0.192,-0.038 -0.29,-0.108 -0.29,-0.228 0,-0.172 0.174,-0.43 0.486,-0.728 0.312,-0.297 0.766,-0.634 1.311,-1.003 1.093,-0.74 2.573,-1.582 4.144,-2.299 1.219,-0.557 2.065,-0.901 2.769,-1.117 0.695,-0.213 1.253,-0.307 1.903,-0.323 l 0,0 z"
         style="fill:#ffaaaa" /><path
         id="path54-9_4_"
         inkscape:connector-curvature="0"
         d="m 280.775,-749.328 c 2.184,-0.27 8.028,-2.443 10.752,-3.744 3.102,-1.48 4.995,-2.759 6.08,-4.109 2.302,-2.86 0.156,-4.603 -5.67,-4.61 -5.005,0 -10.651,2.387 -14.837,6.271 -0.661,0.614 -1.322,1.119 -1.474,1.119 -1.777,-0.455 0.153,-1.924 1.324,-2.894 5.35,-4.997 13.489,-7.247 19.6,-5.418 1.716,0.513 2.452,1.012 3.063,2.073 1.047,1.826 -0.013,4.3 -2.679,6.241 -2.851,2.074 -11.713,5.68 -15.448,6.308 -1.207,0.702 -2.067,-0.752 -0.711,-1.237 l 0,0 z m -1.787,-2.358 c -1.766,-0.926 1.526,-4.062 6.61,-6.298 3.811,-1.673 6.306,-2.061 7.247,-1.119 0.747,0.746 0.446,1.968 -0.803,3.249 -1.689,1.729 -4.954,3.193 -9.029,4.042 -2.3,0.482 -3.288,0.513 -4.025,0.126 l 0,0 z m 5.244,-1.643 c 3.071,-0.801 6.408,-2.426 7.219,-3.516 0.385,-0.516 0.647,-1.071 0.584,-1.231 -0.064,-0.166 -0.819,-0.275 -1.744,-0.251 -1.3,0.034 -2.24,0.32 -4.678,1.436 -3.143,1.436 -5.94,3.329 -5.94,4.021 -10e-4,0.476 1.571,0.318 4.559,-0.459 z" /></g><g
       id="g56-9_4_"
       transform="matrix(0.9593907,0,0,0.89651851,-133.67601,684.42287)"><path
         id="path58-3_4_"
         inkscape:connector-curvature="0"
         d="m 170.113,-723.49 c -0.173,0 -1.681,-0.948 -3.347,-2.098 -1.805,-1.246 -3.661,-2.354 -5.445,-3.256 -1.781,-0.902 -3.493,-1.608 -5.019,-2.047 -0.896,-0.257 -1.808,-0.435 -2.671,-0.541 -0.863,-0.109 -1.676,-0.143 -2.42,-0.106 -0.741,0.037 -1.399,0.137 -1.927,0.315 -0.528,0.18 -0.925,0.439 -1.149,0.754 -0.21,0.293 -0.276,0.806 -0.204,1.416 0.073,0.61 0.269,1.315 0.592,1.976 0.214,0.44 0.604,0.974 1.096,1.539 0.496,0.571 1.106,1.182 1.744,1.749 0.632,0.571 1.291,1.11 1.927,1.557 0.635,0.45 1.244,0.798 1.741,1 1.238,0.495 3.515,1.193 5.63,1.767 2.115,0.573 4.068,1.025 4.682,1.032 0.594,0.009 1.049,-0.002 1.384,0.071 -0.808,0.156 8.549,1.981 3.386,-5.128 l 0,0 z"
         style="fill:#ffffff" /><path
         id="path60-7_4_"
         inkscape:connector-curvature="0"
         d="m 156.354,-726.796 c 0.657,-0.013 1.566,0.133 2.557,0.418 0.86,0.253 1.864,0.643 2.865,1.101 1.001,0.459 2.002,0.99 2.881,1.505 0.875,0.513 1.617,1.012 2.105,1.424 0.242,0.206 0.421,0.382 0.518,0.535 0.094,0.15 0.103,0.28 0.014,0.356 -0.242,0.211 -0.615,0.344 -1.004,0.404 -0.389,0.06 -0.789,0.045 -1.118,-0.083 -0.334,-0.125 -1.91,-0.582 -3.495,-1.002 -1.322,-0.352 -2.092,-0.574 -2.72,-0.89 -0.628,-0.316 -1.125,-0.725 -1.926,-1.44 -0.962,-0.858 -1.749,-1.688 -1.749,-1.845 0,-0.158 0.107,-0.277 0.292,-0.356 0.185,-0.078 0.451,-0.123 0.78,-0.127 l 0,0 z"
         style="fill:#e9afaf" /><path
         id="path62-1_4_"
         inkscape:connector-curvature="0"
         d="m 166.319,-717.499 -2.272,-0.341 c -5.532,-0.831 -10.799,-2.912 -13.335,-5.27 -2.094,-1.942 -3.066,-3.461 -3.281,-5.114 -0.14,-1.085 -0.056,-1.463 0.458,-2.048 0.918,-1.046 2.469,-1.609 4.433,-1.609 4.188,0 8.681,1.663 13.941,5.162 0.221,0.219 5.774,2.864 3.548,3.322 -0.165,0 -1.608,-0.875 -3.203,-1.94 -3.457,-2.307 -7.096,-4.087 -10.016,-4.898 -3.431,-0.952 -6.962,-0.781 -7.826,0.379 -0.401,0.541 -0.231,1.919 0.388,3.147 0.82,1.628 4.322,4.67 6.223,5.403 2.371,0.917 8.697,2.575 9.876,2.588 2.421,0.159 2.852,0.556 1.066,1.219 l 0,0 z m -4.87,-3.654 c -3.73,-1.291 -6.034,-2.689 -7.178,-4.356 -0.704,-1.028 -0.542,-1.876 0.416,-2.15 1.157,-0.33 3.482,-0.141 5.144,0.424 3.745,1.264 8.463,4.319 8.463,5.479 10e-4,1.511 -3.365,1.806 -6.845,0.603 l 0,0 z m 5.782,-0.382 c 0.694,-0.608 -4.95,-3.918 -8.388,-4.918 -1.983,-0.575 -3.619,-0.545 -3.619,0.071 0,0.158 0.787,0.988 1.749,1.845 1.601,1.429 1.99,1.623 4.636,2.328 1.59,0.425 3.163,0.873 3.494,1.001 0.657,0.251 1.639,0.099 2.128,-0.327 l 0,0 z" /></g></g><g
     id="g113"
     transform="translate(1.0136278,-3.24581)"><path
       id="path28-0-2-1_1_"
       inkscape:connector-curvature="0"
       d="m 342.018,31.956 c -2.373,9.128 3.104,18.451 12.229,20.824 1.979,0.515 4.036,0.67 6.071,0.457"
       style="fill:none;stroke:#cc0000;stroke-width:0.75" /><path
       id="path30-3-6-8_1_"
       inkscape:connector-curvature="0"
       d="m 346.568,33.37 c -1.705,6.561 2.23,13.259 8.789,14.964 1.423,0.369 2.9,0.48 4.363,0.328"
       style="fill:none;stroke:#cc0000;stroke-width:0.75" /><path
       id="path32-2-1_1_"
       inkscape:connector-curvature="0"
       d="m 350.232,34.091 c -1.193,4.593 1.562,9.281 6.151,10.477 0.996,0.26 2.029,0.337 3.055,0.229"
       style="fill:none;stroke:#cc0000;stroke-width:0.75" /></g><g
     id="g4419-8_1_"
     transform="translate(300.58235,-242.90079)"
     style="stroke:none"><g
       id="g4475-1_1_"
       transform="translate(293.76076,-161.70597)"
       style="stroke:none"><g
         id="g25-9_1_"
         transform="matrix(0.03024175,0.00275705,-0.0047303,0.0301771,-414.97799,861.23457)"
         style="stroke:none"><path
           id="path27-6-1_1_"
           inkscape:connector-curvature="0"
           d="m 3603.207,-14508.229 262.031,-154.742 -381.717,-209.324 -249.229,106.1 368.908,257.934 0.01,0.03 z"
           style="stroke:none" /><path
           id="path29-6_1_"
           inkscape:connector-curvature="0"
           d="m 3637.596,-14769.611 -152.008,-84.719 -86.552,38.943 147.253,96.023 91.307,-50.247 0,0 z m -361.557,8.535 152.283,106.922 100.883,-55.719 -148.963,-97.26 -104.166,46.084 -0.037,-0.03 z m 269.44,61.722 -99.6,56.281 158.312,109.967 105.102,-59.926 -163.814,-106.322 0,0 z m 179.61,96.239 103.708,-59.957 -174.633,-97.438 -91.766,51.035 162.691,106.36 0,0 z"
           style="stroke:none" /></g><g
         id="g31-1_1_"
         transform="matrix(0.01997872,0.00821769,-0.01815877,0.03023895,-344.57356,826.35859)"
         style="stroke:none"><path
           id="path33-5_1_"
           inkscape:connector-curvature="0"
           d="m -5792.501,-11721.225 261.998,-154.717 -355.357,-208.127 c -8.973,-4.117 -15.238,-5.418 -27.516,-2.953 l -233.326,101.453 c -5.979,4.016 -5.953,9.207 -2.137,15.178 l 356.338,249.166 0,0 z"
           style="stroke:none" /><path
           id="path35-0_1_"
           inkscape:connector-curvature="0"
           d="m -5754.552,-11984.666 -145.252,-87.797 -96.805,44.068 147.225,96.047 94.832,-52.318 0,0 z m -364.998,10.578 152.289,106.943 100.83,-55.725 -148.92,-97.266 -104.176,46.074 -0.023,-0.03 z m 269.387,61.75 -99.605,56.264 158.305,109.959 105.082,-59.918 -163.782,-106.305 0,0 z m 179.559,96.238 103.742,-59.941 -171.094,-99.508 -95.324,53.068 162.676,106.381 0,0 z"
           style="stroke:none" /></g><path
         id="path37-9_1_"
         inkscape:connector-curvature="0"
         d="m -233.349,431.453 c -0.557,-0.491 -0.065,-0.909 0.431,-0.45 l 0.933,0.646 c 0.591,0.329 -0.158,0.938 -0.554,0.772 l -0.887,-0.909 0.077,-0.059 0,0 z"
         style="stroke:none" /><path
         id="path39-6_1_"
         inkscape:connector-curvature="0"
         d="m -231.855,441.514 c 1.847,-1.184 1.453,-5.252 -0.42,-6.898 -1.467,-1.3 -3.356,-1.611 -4.646,-0.837 l 10.728,-5.188 c 1.417,-0.811 3.767,-1.137 5.411,0.502 1.072,1.068 1.667,4.021 -0.449,5.517 l -10.624,6.904 0,0 z"
         style="stroke:none" /><path
         id="path43-1_1_"
         inkscape:connector-curvature="0"
         d="m -237.193,434.008 c 1.396,-1.173 3.258,-0.929 4.877,0.506 2.021,1.826 2.631,5.994 0.036,7.275 -3.834,1.894 -8.146,-5.064 -4.913,-7.781 z"
         style="stroke:none" /><path
         id="path45-3_1_"
         inkscape:connector-curvature="0"
         enable-background="new    "
         d="m -231.855,441.514 c 1.847,-1.184 1.453,-5.252 -0.42,-6.898 -1.467,-1.3 -3.356,-1.611 -4.646,-0.837 l 10.728,-5.188 c 1.417,-0.811 3.767,-1.137 5.411,0.502 1.072,1.068 1.667,4.021 -0.449,5.517 l -10.624,6.904 0,0 z"
         style="opacity:0.7;stroke:none" /><g
         id="g49-4_1_"
         transform="matrix(0.03470999,-0.00247128,0.00126494,0.04754631,-429.22925,861.8678)"
         style="stroke:none"><path
           id="path51-3_1_"
           inkscape:connector-curvature="0"
           d="m 6412.742,-8278.582 262.033,-154.744 -381.703,-209.291 -249.258,106.072 368.93,257.943 0,0.02 z"
           style="stroke:none" /><path
           id="path53-4_1_"
           inkscape:connector-curvature="0"
           d="m 6453.574,-8535.893 -158.453,-88.852 -86.555,38.963 150.477,97.701 94.531,-47.812 0,0 z m -367.996,4.434 152.279,106.914 103.031,-52.525 -151.137,-100.467 -104.173,46.078 z m 272.652,63.383 -102.799,54.611 158.303,109.959 105.074,-59.936 -160.578,-104.634 0,0 z m 176.391,94.57 103.725,-59.945 -164.963,-92.436 -97.145,50.057 158.383,102.324 0,0 z"
           style="stroke:none" /></g><g
         id="g55-6_1_"
         transform="matrix(0.0385441,9.9544929e-5,0.00724834,0.05237584,-461.87646,837.91784)"
         style="stroke:none"><path
           id="path57-0_1_"
           inkscape:connector-curvature="0"
           d="m 8127.527,-7279.003 247.727,-174.695 c 4.188,-5.824 -2.168,-10.158 -8.604,-13.389 l -359.541,-58.643 -261.611,155.684 361.312,94.232 c 7.647,1.237 14.491,0.01 20.717,-3.189 l 0,0 z"
           style="stroke:none" /><path
           id="path59-1_1_"
           inkscape:connector-curvature="0"
           d="m 8156.896,-7485.983 -148.602,-26.25 -90.979,55.756 146.57,33.281 92.984,-62.787 0.027,0 z m -368.763,107.894 151.205,40.432 106.506,-73.123 -148.252,-33.764 -109.434,66.455 -0.025,0 z m 273.904,-29.068 -105.225,73.18 157.236,41.09 111.057,-77.645 -163.068,-36.625 0,0 z m 179.836,24.119 102.855,-71.627 -170.117,-28.109 -94.643,62.717 161.905,37.019 0,0 z"
           style="stroke:none" /></g><path
         id="path61-5_1_"
         inkscape:connector-curvature="0"
         d="m -225.662,438.308 c 0.781,0.66 1.329,-0.021 0.603,-0.608 l -1.066,-1.146 c -0.568,-0.743 -1.321,0.392 -1.021,0.899 l 1.17,0.808 0.122,-0.064 0.192,0.111 0,0 z"
         style="stroke:none" /></g></g><g
     id="flowRoot4204-6-7"
     transform="matrix(0.86098606,0,0,0.86098606,-65.484102,540.92741)"><path
       id="path4543-6-5"
       inkscape:connector-curvature="0"
       d="m 205.725,-550.678 -19.525,0 c -0.5,0 -1.041,-0.058 -1.624,-0.169 -0.567,-0.125 -1.138,-0.312 -1.707,-0.563 -0.555,-0.25 -1.089,-0.568 -1.603,-0.957 -0.514,-0.403 -0.971,-0.879 -1.374,-1.436 -0.389,-0.567 -0.701,-1.222 -0.937,-1.957 -0.236,-0.75 -0.354,-1.589 -0.354,-2.519 l 0,-14.654 c 0,-0.499 0.056,-1.031 0.167,-1.603 0.125,-0.583 0.312,-1.152 0.56,-1.707 0.252,-0.568 0.575,-1.109 0.98,-1.623 0.403,-0.514 0.879,-0.965 1.436,-1.353 0.567,-0.403 1.222,-0.72 1.957,-0.956 0.736,-0.236 1.569,-0.354 2.499,-0.354 l 19.525,0 0,5.413 -19.525,0 c -0.708,0 -1.25,0.187 -1.624,0.561 -0.372,0.373 -0.559,0.929 -0.559,1.664 l 0,14.612 c 0,0.694 0.187,1.235 0.559,1.624 0.389,0.374 0.93,0.56 1.624,0.56 l 19.525,0 0,5.417 0,0 z" /><path
       id="path4545-4-4"
       inkscape:connector-curvature="0"
       d="m 234.513,-558.276 c 0,0.93 -0.118,1.768 -0.354,2.519 -0.236,0.735 -0.548,1.387 -0.937,1.957 -0.388,0.555 -0.839,1.033 -1.353,1.436 -0.513,0.389 -1.054,0.708 -1.623,0.957 -0.556,0.251 -1.124,0.438 -1.707,0.563 -0.567,0.111 -1.108,0.167 -1.623,0.167 l -9.764,0 c -0.749,0 -1.568,-0.133 -2.456,-0.396 -0.888,-0.264 -1.714,-0.694 -2.477,-1.291 -0.75,-0.61 -1.383,-1.395 -1.894,-2.352 -0.5,-0.971 -0.75,-2.155 -0.75,-3.558 l 0,-7.326 c 0,-1.387 0.25,-2.56 0.75,-3.517 0.513,-0.972 1.144,-1.756 1.894,-2.352 0.763,-0.61 1.589,-1.048 2.477,-1.311 0.888,-0.263 1.707,-0.396 2.456,-0.396 l 9.765,0 c 1.386,0 2.568,0.251 3.539,0.751 0.972,0.499 1.756,1.131 2.35,1.893 0.599,0.751 1.03,1.57 1.292,2.457 0.279,0.888 0.415,1.715 0.415,2.477 l 0,7.322 z m -5.412,-7.285 c 0,-0.75 -0.188,-1.304 -0.563,-1.665 -0.374,-0.362 -0.916,-0.542 -1.623,-0.542 l -9.724,0 c -0.719,0 -1.268,0.188 -1.645,0.564 -0.374,0.362 -0.561,0.896 -0.561,1.604 l 0,7.327 c 0,0.708 0.187,1.249 0.561,1.623 0.375,0.373 0.923,0.56 1.645,0.56 l 9.724,0 c 0.735,0 1.283,-0.187 1.641,-0.56 0.362,-0.374 0.542,-0.917 0.542,-1.623 l 0,-7.286 0.002,0 0,-0.002 z" /><path
       id="path4547-4-6"
       inkscape:connector-curvature="0"
       d="m 276.145,-573.18 c -0.861,1.927 -1.791,3.829 -2.79,5.703 -0.997,1.86 -2.045,3.623 -3.143,5.288 -1.082,1.665 -2.193,3.205 -3.33,4.621 -1.138,1.402 -2.27,2.616 -3.394,3.643 -1.109,1.013 -2.199,1.81 -3.268,2.393 -1.055,0.567 -2.054,0.854 -2.998,0.854 -0.388,0 -0.75,-0.07 -1.082,-0.211 -0.333,-0.136 -0.625,-0.326 -0.877,-0.559 -0.25,-0.252 -0.441,-0.542 -0.583,-0.874 -0.136,-0.332 -0.208,-0.694 -0.208,-1.083 l 0,-10.095 -10.741,12.01 c -0.278,0.278 -0.583,0.483 -0.914,0.624 -0.321,0.126 -0.651,0.188 -0.998,0.188 -0.375,0 -0.729,-0.07 -1.063,-0.211 -0.321,-0.136 -0.602,-0.326 -0.854,-0.559 -0.251,-0.252 -0.449,-0.542 -0.602,-0.874 -0.138,-0.332 -0.209,-0.694 -0.209,-1.083 l 0,-19.773 5.41,0 0,12.824 10.783,-12.052 c 0.388,-0.389 0.846,-0.632 1.374,-0.728 0.541,-0.11 1.068,-0.056 1.582,0.168 0.513,0.209 0.915,0.541 1.207,0.998 0.305,0.446 0.458,0.937 0.458,1.478 l 0,12.866 c 1.166,-1.124 2.22,-2.309 3.163,-3.559 0.944,-1.249 1.818,-2.533 2.622,-3.851 0.819,-1.333 1.582,-2.679 2.289,-4.039 0.725,-1.375 1.423,-2.74 2.104,-4.1 l 6.058,0 0,-0.005 0.004,0 z" /><path
       id="path4549-5-3"
       inkscape:connector-curvature="0"
       d="m 305.641,-575.116 -11.928,0 0,24.438 -5.413,0 0,-24.438 -11.948,0 0,-5.414 29.287,0 0,5.414 0.002,0 z" /><path
       id="path4551-0-1"
       inkscape:connector-curvature="0"
       d="m 326.227,-567.768 -12.177,0 c -0.735,0 -1.291,0.188 -1.665,0.564 -0.374,0.362 -0.563,0.896 -0.563,1.604 l 0,14.924 -5.411,0 0,-14.924 c 0,-0.93 0.118,-1.764 0.354,-2.5 0.236,-0.735 0.548,-1.379 0.937,-1.935 0.402,-0.568 0.862,-1.047 1.376,-1.436 0.513,-0.404 1.048,-0.728 1.603,-0.98 0.569,-0.25 1.138,-0.43 1.707,-0.541 0.583,-0.125 1.124,-0.185 1.623,-0.185 l 12.219,0 0,5.409 -0.003,0 0,0 z" /><path
       id="path4553-6-2"
       inkscape:connector-curvature="0"
       d="m 379.037,-550.678 -14.676,0 c -0.75,0 -1.569,-0.135 -2.457,-0.397 -0.887,-0.263 -1.715,-0.693 -2.476,-1.292 -0.752,-0.609 -1.38,-1.395 -1.894,-2.35 -0.5,-0.971 -0.75,-2.157 -0.75,-3.559 l 0,-7.327 c 0,-0.514 0.056,-1.055 0.167,-1.623 0.125,-0.569 0.312,-1.132 0.559,-1.687 0.253,-0.569 0.569,-1.11 0.958,-1.623 0.402,-0.514 0.881,-0.965 1.436,-1.353 0.569,-0.389 1.223,-0.701 1.958,-0.937 0.735,-0.236 1.57,-0.354 2.499,-0.354 l 14.676,0 0,5.409 -14.676,0 c -0.708,0 -1.249,0.18 -1.623,0.542 -0.361,0.361 -0.541,0.915 -0.541,1.665 l 0,7.285 c 0,0.708 0.187,1.249 0.561,1.624 0.373,0.373 0.921,0.559 1.645,0.559 l 14.634,0 0,5.418 z" /><path
       id="path4555-3-0"
       inkscape:connector-curvature="0"
       d="m 409.989,-550.678 -7.806,0 -10.908,-10.536 c -0.61,-0.555 -0.896,-1.249 -0.854,-2.079 0.027,-0.388 0.126,-0.752 0.293,-1.082 0.18,-0.347 0.423,-0.641 0.729,-0.877 l 9.887,-7.973 8.659,0 -12.74,10.263 12.74,12.284 z m -20.94,0 -5.411,0 0,-32.015 5.411,0 0,32.015 z" /><path
       id="path4557-5-0"
       inkscape:connector-curvature="0"
       d="m 418.524,-577.801 -5.415,0 0,-4.892 5.415,0 0,4.892 z m 0,27.123 -5.415,0 0,-22.502 5.415,0 0,22.502 z" /><path
       id="path4559-0-9"
       inkscape:connector-curvature="0"
       d="m 448.624,-550.678 -5.413,0 0,-12.49 c 0,-0.708 -0.126,-1.338 -0.374,-1.894 -0.236,-0.568 -0.561,-1.055 -0.978,-1.456 -0.417,-0.403 -0.911,-0.708 -1.478,-0.917 -0.557,-0.222 -1.159,-0.333 -1.811,-0.333 l -9.471,0 0,17.092 -5.414,0 0,-19.816 c 0,-0.374 0.068,-0.721 0.21,-1.04 0.137,-0.333 0.331,-0.618 0.582,-0.854 0.251,-0.251 0.542,-0.443 0.875,-0.583 0.333,-0.138 0.687,-0.209 1.063,-0.209 l 12.2,0 c 0.678,0 1.394,0.076 2.144,0.229 0.763,0.151 1.512,0.404 2.248,0.75 0.75,0.331 1.458,0.762 2.123,1.291 0.677,0.514 1.276,1.146 1.79,1.894 0.526,0.736 0.944,1.589 1.249,2.561 0.305,0.971 0.458,2.068 0.458,3.288 l 0,12.489 -0.002,0 0,-0.002 z" /><path
       id="path4561-4-4"
       inkscape:connector-curvature="0"
       d="m 477.889,-548.515 c 0,0.929 -0.119,1.764 -0.355,2.5 -0.236,0.749 -0.548,1.401 -0.937,1.957 -0.388,0.568 -0.837,1.047 -1.352,1.436 -0.514,0.403 -1.055,0.728 -1.623,0.978 -0.556,0.253 -1.124,0.431 -1.707,0.542 -0.567,0.125 -1.109,0.187 -1.622,0.187 l -9.763,0 0,-5.413 9.763,0 c 0.735,0 1.283,-0.187 1.645,-0.561 0.361,-0.374 0.541,-0.917 0.541,-1.624 l 0,-17.09 c 0,-0.708 -0.18,-1.242 -0.541,-1.603 -0.362,-0.374 -0.91,-0.565 -1.645,-0.565 l -9.763,0 c -0.666,0 -1.193,0.21 -1.581,0.625 -0.389,0.404 -0.583,0.915 -0.583,1.54 l 0,7.327 c 0,0.708 0.187,1.249 0.561,1.624 0.373,0.373 0.922,0.559 1.645,0.559 l 9.722,0 0,5.415 -9.761,0 c -0.514,0 -1.055,-0.058 -1.623,-0.168 -0.569,-0.126 -1.138,-0.313 -1.707,-0.564 -0.555,-0.25 -1.089,-0.568 -1.603,-0.957 -0.516,-0.403 -0.964,-0.879 -1.353,-1.436 -0.388,-0.567 -0.701,-1.222 -0.937,-1.957 -0.236,-0.75 -0.354,-1.589 -0.354,-2.519 l 0,-7.327 c 0,-0.514 0.056,-1.055 0.167,-1.623 0.125,-0.567 0.312,-1.132 0.563,-1.687 0.251,-0.569 0.568,-1.11 0.957,-1.623 0.403,-0.514 0.881,-0.965 1.436,-1.353 0.568,-0.389 1.222,-0.701 1.957,-0.937 0.736,-0.236 1.57,-0.354 2.5,-0.354 l 9.761,0 c 0.514,0 1.055,0.062 1.623,0.187 0.583,0.111 1.152,0.292 1.707,0.541 0.569,0.25 1.11,0.576 1.624,0.979 0.513,0.388 0.964,0.866 1.352,1.436 0.389,0.555 0.701,1.2 0.937,1.936 0.236,0.735 0.354,1.568 0.354,2.498 l 0,17.092 -0.003,0 0,0.002 z" /></g><g
     id="g368"
     transform="translate(1.0136278,-3.24581)"><path
       id="path6-5-8"
       inkscape:connector-curvature="0"
       d="m 211.618,63.094 23.109,0"
       style="fill:none;stroke:#000000;stroke-width:2.25" /><path
       id="path8-7-0"
       inkscape:connector-curvature="0"
       d="m 215.709,57.164 15.952,0"
       style="fill:none;stroke:#000000;stroke-width:2.25" /><path
       id="path12-9-8"
       inkscape:connector-curvature="0"
       d="m 223.787,27.1 0,0.102 c 0,2.706 0.63,26.271 -17.077,41.721"
       style="fill:none;stroke:#000000;stroke-width:2.8125" /><path
       id="path14-0-6"
       inkscape:connector-curvature="0"
       d="m 223.738,27.047 0,0.104 c 0,2.706 -0.63,26.271 17.077,41.722"
       style="fill:none;stroke:#000000;stroke-width:2.8125" /><g
       id="g374"><path
         id="path4-5-0-5"
         inkscape:connector-curvature="0"
         d="m 228.02,27.564 c -0.027,2.282 -1.901,4.107 -4.186,4.081 -2.282,-0.029 -4.109,-1.903 -4.081,-4.188 0.029,-2.281 1.901,-4.107 4.186,-4.081 2.268,0.029 4.085,1.876 4.081,4.143"
         style="fill:#cc0000;stroke:#cc0000;stroke-width:0.4632;stroke-linecap:round" /><path
         id="path18-8-2"
         inkscape:connector-curvature="0"
         d="m 234.586,14.013 c 7.396,5.852 8.647,16.591 2.799,23.986 -1.271,1.604 -2.817,2.97 -4.568,4.025"
         style="fill:none;stroke:#cc0000;stroke-width:0.91670001;stroke-linecap:round" /><path
         id="path20-1-5"
         inkscape:connector-curvature="0"
         d="m 231.809,17.883 c 5.315,4.205 6.216,11.924 2.011,17.237 -0.91,1.152 -2.021,2.133 -3.28,2.895"
         style="fill:none;stroke:#cc0000;stroke-width:0.91670001;stroke-linecap:round" /><path
         id="path22-1-3"
         inkscape:connector-curvature="0"
         d="m 229.322,20.669 c 3.723,2.943 4.353,8.347 1.408,12.065 -0.639,0.808 -1.417,1.494 -2.299,2.025"
         style="fill:none;stroke:#cc0000;stroke-width:0.91670001;stroke-linecap:round" /><path
         id="path28-0-4-7"
         inkscape:connector-curvature="0"
         d="m 213.811,14.054 c -7.396,5.852 -8.648,16.591 -2.799,23.986 1.271,1.604 2.816,2.97 4.568,4.025"
         style="fill:none;stroke:#cc0000;stroke-width:0.91670001;stroke-linecap:round" /><path
         id="path30-3-0-7"
         inkscape:connector-curvature="0"
         d="m 216.588,17.924 c -5.315,4.205 -6.216,11.924 -2.011,17.237 0.91,1.152 2.021,2.133 3.28,2.895"
         style="fill:none;stroke:#cc0000;stroke-width:0.91670001;stroke-linecap:round" /><path
         id="path32-5-5"
         inkscape:connector-curvature="0"
         d="m 219.075,20.711 c -3.723,2.942 -4.354,8.347 -1.408,12.065 0.639,0.808 1.417,1.493 2.299,2.025"
         style="fill:none;stroke:#cc0000;stroke-width:0.91670001;stroke-linecap:round" /></g><path
       id="path34-4-3"
       inkscape:connector-curvature="0"
       d="m 218.588,50.739 10.688,0"
       style="fill:none;stroke:#000000;stroke-width:1.84169996" /></g><g
     id="text5416-6"
     transform="translate(-2.6545606,92.01685)"><path
       id="path6600"
       inkscape:connector-curvature="0"
       d="m 123.843,1.71 c 0,1.448 -0.255,2.78 -0.765,3.996 -0.498,1.216 -1.188,2.268 -2.071,3.15 -0.886,0.873 -1.937,1.559 -3.15,2.056 -1.213,0.497 -2.536,0.746 -3.962,0.746 l -11.64,0 c -0.312,0 -0.599,-0.056 -0.862,-0.166 -0.263,-0.11 -0.497,-0.26 -0.696,-0.447 -0.188,-0.197 -0.337,-0.432 -0.445,-0.694 -0.111,-0.268 -0.166,-0.555 -0.166,-0.862 l 0,-19.437 c 0,-0.298 0.055,-0.578 0.166,-0.845 0.108,-0.266 0.26,-0.498 0.445,-0.697 0.199,-0.196 0.433,-0.354 0.696,-0.464 0.265,-0.108 0.553,-0.166 0.862,-0.166 l 11.64,0 c 1.426,0 2.746,0.249 3.962,0.746 1.216,0.498 2.267,1.188 3.15,2.073 0.885,0.873 1.573,1.923 2.071,3.149 0.51,1.217 0.765,2.543 0.765,3.979 l 0,3.883 0,0 z m -4.311,-3.88 c 0,-0.84 -0.138,-1.606 -0.414,-2.305 -0.266,-0.696 -0.646,-1.287 -1.145,-1.773 -0.497,-0.498 -1.094,-0.879 -1.79,-1.145 -0.688,-0.276 -1.448,-0.414 -2.288,-0.414 l -9.501,0 0,15.154 9.501,0 c 0.84,0 1.603,-0.135 2.288,-0.398 0.696,-0.276 1.293,-0.657 1.79,-1.144 0.498,-0.498 0.879,-1.091 1.145,-1.774 0.276,-0.696 0.414,-1.47 0.414,-2.321 l 0,-3.88 z"
       style="fill:#ffffff" /><path
       id="path6602"
       inkscape:connector-curvature="0"
       d="m 151.432,11.658 -4.312,0 0,-5.836 -15.152,0 0,5.836 -4.312,0 0,-11.888 c 0,-1.735 0.298,-3.333 0.896,-4.792 0.598,-1.459 1.426,-2.714 2.485,-3.766 1.062,-1.05 2.315,-1.866 3.766,-2.454 1.449,-0.586 3.026,-0.879 4.742,-0.879 l 9.716,0 c 0.299,0 0.58,0.058 0.846,0.166 0.266,0.11 0.497,0.268 0.696,0.464 0.199,0.199 0.354,0.434 0.464,0.697 0.111,0.267 0.166,0.547 0.166,0.845 l 0,21.607 -0.001,0 z m -19.465,-10.149 15.152,0 0,-9.315 -7.575,0 c -0.135,0 -0.415,0.021 -0.848,0.064 -0.42,0.033 -0.912,0.127 -1.476,0.281 -0.553,0.155 -1.14,0.395 -1.758,0.713 -0.619,0.321 -1.188,0.765 -1.708,1.327 -0.521,0.563 -0.95,1.271 -1.293,2.122 -0.331,0.84 -0.497,1.862 -0.497,3.067 l 0.003,1.741 0,0 z"
       style="fill:#ffffff" /><path
       id="path6604"
       inkscape:connector-curvature="0"
       d="m 177.911,-7.807 -9.5,0 0,19.465 -4.311,0 0,-19.465 -9.52,0 0,-4.312 23.328,0 0.003,4.312 0,0 z"
       style="fill:#ffffff" /><path
       id="path6606"
       inkscape:connector-curvature="0"
       d="m 195.072,1.71 -15.553,0 0,-3.88 15.553,0 0,3.88 z"
       style="fill:#ffffff" /><path
       id="path6608"
       inkscape:connector-curvature="0"
       d="m 223.225,-2.17 c 0,0.984 -0.122,1.862 -0.365,2.637 -0.243,0.773 -0.574,1.459 -0.994,2.058 -0.409,0.586 -0.885,1.089 -1.427,1.509 -0.541,0.42 -1.11,0.763 -1.707,1.028 -0.586,0.265 -1.183,0.458 -1.791,0.58 -0.597,0.119 -1.16,0.183 -1.689,0.183 l -9.75,0 0,-4.316 9.747,0 c 0.555,-0.044 1.052,-0.152 1.492,-0.329 0.453,-0.188 0.84,-0.438 1.161,-0.746 0.32,-0.312 0.569,-0.682 0.746,-1.111 0.177,-0.441 0.265,-0.939 0.265,-1.492 l 0,-1.956 c -0.055,-0.542 -0.171,-1.039 -0.348,-1.492 -0.177,-0.451 -0.42,-0.84 -0.729,-1.159 -0.301,-0.32 -0.663,-0.569 -1.097,-0.746 -0.431,-0.188 -0.929,-0.281 -1.492,-0.281 l -9.716,0 c -0.575,0 -1.012,0.146 -1.31,0.447 -0.299,0.299 -0.448,0.729 -0.448,1.293 l 0,17.723 -4.311,0 0,-17.727 c 0,-1.105 0.197,-2.045 0.597,-2.818 0.409,-0.773 0.912,-1.398 1.509,-1.873 0.608,-0.476 1.268,-0.818 1.976,-1.028 0.707,-0.222 1.357,-0.332 1.954,-0.332 l 9.749,0 c 0.975,0 1.848,0.127 2.62,0.384 0.773,0.241 1.453,0.572 2.039,0.993 0.599,0.408 1.102,0.886 1.509,1.428 0.422,0.541 0.765,1.108 1.028,1.707 0.276,0.586 0.477,1.183 0.597,1.791 0.121,0.597 0.185,1.159 0.185,1.689 l 0,1.956 0,0 z"
       style="fill:#ffffff" /><path
       id="path6610"
       inkscape:connector-curvature="0"
       d="m 242.06,-1.954 -9.699,0 c -0.586,0 -1.028,0.149 -1.327,0.447 -0.298,0.288 -0.445,0.713 -0.445,1.277 l 0,11.888 -4.312,0 0,-11.888 c 0,-0.741 0.094,-1.404 0.281,-1.99 0.187,-0.586 0.437,-1.1 0.746,-1.542 0.319,-0.453 0.686,-0.834 1.095,-1.146 0.409,-0.318 0.834,-0.578 1.276,-0.777 0.453,-0.199 0.904,-0.343 1.357,-0.434 0.465,-0.099 0.896,-0.146 1.294,-0.146 l 9.732,0 0.002,4.311 0,0 z"
       style="fill:#ffffff" /><path
       id="path6612"
       inkscape:connector-curvature="0"
       d="m 264.311,5.606 c 0,0.74 -0.095,1.409 -0.282,2.006 -0.188,0.586 -0.437,1.104 -0.746,1.559 -0.31,0.442 -0.669,0.824 -1.078,1.146 -0.406,0.31 -0.84,0.562 -1.293,0.763 -0.44,0.199 -0.896,0.348 -1.357,0.447 -0.453,0.089 -0.885,0.133 -1.293,0.133 l -7.776,0 c -0.597,0 -1.249,-0.104 -1.957,-0.315 -0.707,-0.21 -1.364,-0.552 -1.973,-1.025 -0.599,-0.486 -1.102,-1.111 -1.509,-1.874 -0.397,-0.773 -0.599,-1.719 -0.599,-2.835 l 0,-5.84 c 0,-1.105 0.199,-2.04 0.599,-2.805 0.407,-0.771 0.91,-1.396 1.509,-1.873 0.606,-0.484 1.266,-0.835 1.973,-1.045 0.708,-0.21 1.36,-0.312 1.957,-0.312 l 7.776,0 c 1.104,0 2.045,0.198 2.816,0.597 0.773,0.397 1.398,0.9 1.873,1.509 0.478,0.599 0.818,1.249 1.028,1.956 0.221,0.708 0.332,1.365 0.332,1.976 l 0,5.832 0,0 z m -4.313,-5.804 c 0,-0.598 -0.146,-1.037 -0.445,-1.325 -0.299,-0.287 -0.729,-0.433 -1.293,-0.433 l -7.743,0 c -0.575,0 -1.012,0.149 -1.312,0.447 -0.299,0.288 -0.446,0.713 -0.446,1.277 l 0,5.836 c 0,0.562 0.147,0.995 0.446,1.293 0.3,0.299 0.734,0.447 1.312,0.447 l 7.743,0 c 0.586,0 1.021,-0.148 1.31,-0.447 C 259.856,6.6 260,6.169 260,5.605 l 0,-5.804 -0.002,0 z"
       style="fill:#ffffff" /><path
       id="path6614"
       inkscape:connector-curvature="0"
       d="m 272.335,-9.948 -4.312,0 0,-3.896 4.312,0 0,3.896 z m 0,23.329 c 0,0.74 -0.096,1.403 -0.282,1.989 -0.188,0.597 -0.438,1.116 -0.746,1.561 -0.311,0.451 -0.668,0.835 -1.077,1.145 -0.409,0.32 -0.84,0.58 -1.293,0.779 -0.442,0.196 -0.891,0.342 -1.344,0.431 -0.453,0.1 -0.884,0.149 -1.293,0.149 l -7.776,0 0,-4.312 7.776,0 c 0.575,0 1.006,-0.146 1.293,-0.447 0.288,-0.299 0.432,-0.729 0.432,-1.293 l 0,-19.648 4.312,0 -0.002,19.646 0,0 z"
       style="fill:#ffffff" /><path
       id="path6616"
       inkscape:connector-curvature="0"
       d="m 295.73,-0.329 c 0,0.599 -0.104,1.243 -0.312,1.939 -0.212,0.686 -0.555,1.326 -1.028,1.924 -0.464,0.586 -1.078,1.077 -1.841,1.476 -0.751,0.397 -1.669,0.599 -2.752,0.599 l -7.776,0 0,-4.1 7.776,0 c 0.586,0 1.039,-0.177 1.357,-0.528 0.321,-0.364 0.481,-0.812 0.481,-1.343 0,-0.563 -0.185,-1.008 -0.548,-1.326 -0.354,-0.321 -0.784,-0.481 -1.293,-0.481 l -7.776,0 c -0.586,0 -1.039,0.185 -1.359,0.547 -0.318,0.354 -0.479,0.796 -0.479,1.327 l 0,6.021 c 0,0.572 0.177,1.021 0.528,1.343 0.365,0.318 0.812,0.479 1.345,0.479 l 7.743,0 0,4.112 -7.776,0 c -0.597,0 -1.243,-0.105 -1.939,-0.315 -0.686,-0.21 -1.324,-0.547 -1.924,-1.011 -0.585,-0.476 -1.077,-1.089 -1.476,-1.841 -0.397,-0.763 -0.599,-1.686 -0.599,-2.769 l 0,-6.054 c 0,-0.597 0.105,-1.236 0.315,-1.924 0.21,-0.696 0.547,-1.337 1.011,-1.923 0.478,-0.597 1.089,-1.095 1.841,-1.492 0.765,-0.396 1.688,-0.597 2.771,-0.597 l 7.776,0 c 0.597,0 1.236,0.104 1.924,0.312 0.694,0.21 1.337,0.555 1.923,1.028 0.597,0.464 1.095,1.077 1.492,1.84 0.397,0.756 0.595,1.674 0.595,2.757 z"
       style="fill:#ffffff" /><path
       id="path6618"
       inkscape:connector-curvature="0"
       d="m 319.721,11.658 -6.219,0 -8.688,-8.39 c -0.486,-0.442 -0.713,-0.995 -0.68,-1.658 0.021,-0.312 0.1,-0.597 0.23,-0.862 0.146,-0.274 0.337,-0.508 0.58,-0.696 l 7.876,-6.35 6.897,0 -10.147,8.174 10.151,9.782 0,0 z m -16.681,0 -4.311,0 0,-25.5 4.311,0 0,25.5 z"
       style="fill:#ffffff" /><path
       id="path6620"
       inkscape:connector-curvature="0"
       d="m 338.441,-1.954 -7.527,0 0,13.612 -4.358,0 0,-13.612 -5.604,0 0,-4.311 5.604,0 0,-5.854 4.358,0 0,5.854 7.527,0 0,4.311 z"
       style="fill:#ffffff" /></g></svg>