<?xml version="1.0" encoding="UTF-8" standalone="no"?>
<!-- Generator: Adobe Illustrator 16.0.4, SVG Export Plug-In . SVG Version: 6.00 Build 0)  -->

<svg
   xmlns:dc="http://purl.org/dc/elements/1.1/"
   xmlns:cc="http://creativecommons.org/ns#"
   xmlns:rdf="http://www.w3.org/1999/02/22-rdf-syntax-ns#"
   xmlns:svg="http://www.w3.org/2000/svg"
   xmlns="http://www.w3.org/2000/svg"
   xmlns:sodipodi="http://sodipodi.sourceforge.net/DTD/sodipodi-0.dtd"
   xmlns:inkscape="http://www.inkscape.org/namespaces/inkscape"
   version="1.1"
   id="svg2"
   sodipodi:docname="CowTracking_5.svg"
   inkscape:export-filename="/home/stefan/cow-Logos.jpg"
   inkscape:version="0.91 r13725"
   inkscape:export-ydpi="90"
   inkscape:export-xdpi="90"
   x="0px"
   y="0px"
   width="415"
   height="120"
   viewBox="0 0 415 120"
   enable-background="new 0 0 415 700"
   xml:space="preserve"><metadata
     id="metadata415"><rdf:RDF><cc:Work
         rdf:about=""><dc:format>image/svg+xml</dc:format><dc:type
           rdf:resource="http://purl.org/dc/dcmitype/StillImage" /><dc:title /></cc:Work></rdf:RDF></metadata><defs
     id="defs413" /><sodipodi:namedview
     inkscape:cy="323.97555"
     inkscape:cx="44.919796"
     inkscape:zoom="1.1577478"
     showgrid="false"
     guidetolerance="10"
     gridtolerance="10"
     objecttolerance="10"
     borderopacity="1"
     pagecolor="#ffffff"
     bordercolor="#666666"
     id="namedview72"
     inkscape:current-layer="svg2"
     inkscape:window-maximized="1"
     inkscape:window-y="27"
     inkscape:window-x="0"
     inkscape:window-height="1016"
     inkscape:window-width="1920"
     inkscape:pageshadow="2"
     inkscape:pageopacity="0"
     borderlayer="true" /><g
     id="flowRoot5428"
     transform="translate(0,-580)" /><g
     id="g4631-3-4-7"
     transform="translate(491.30798,-1108.2831)" /><g
     id="g7"
     transform="translate(5.0681388,-565.80921)"><path
       id="path27-9_3_"
       inkscape:connector-curvature="0"
       sodipodi:nodetypes="sscccsss"
       d="m 47.187,580.095 c -18.512,0 -33.459,14.962 -33.459,33.418 0,5.803 1.482,11.263 4.082,16.02 l 29.378,49.183 29.379,-49.183 c 2.601,-4.757 4.082,-10.217 4.082,-16.021 0,-18.456 -14.945,-33.418 -33.459,-33.418 l -0.003,10e-4 z"
       style="fill:#e3001b;stroke:#000000;stroke-width:2.04220009" /><path
       id="path28-5_3_"
       inkscape:connector-curvature="0"
       d="m 53.626,635.751 c -2.727,0.039 -5.794,0.544 -9.209,1.689 -6.606,-1.385 -12.392,1.13 -16.543,4.286 -2.096,1.592 -3.787,3.35 -4.99,4.872 -0.604,0.762 -1.076,1.468 -1.427,2.069 -0.352,0.604 -0.582,1.085 -0.662,1.527 -0.053,0.311 0.156,0.605 0.467,0.659 0.128,0.021 0.26,-10e-4 0.374,-0.064 0,0 1.956,-1.017 3.734,-1.876 -1.071,1.816 -1.607,3.9 -2.292,6.773 -0.076,0.306 0.108,0.615 0.416,0.689 0.134,0.033 0.274,0.019 0.397,-0.047 0.715,-0.355 1.46,-1.041 2.311,-1.898 0.849,-0.86 1.773,-1.903 2.716,-2.945 0.963,-1.066 1.958,-2.128 2.869,-3.014 -0.225,0.713 -0.396,1.458 -0.52,2.23 -0.312,1.982 -0.389,4.069 -0.577,5.5 -0.038,0.312 0.187,0.599 0.497,0.635 0.138,0.019 0.271,-0.016 0.387,-0.092 2.002,-1.35 3.444,-4.479 5.458,-7.299 2.012,-2.818 4.432,-5.259 8.013,-5.416 3.65,-0.159 6.65,1.312 9.354,3.497 2.701,2.188 5.066,5.087 7.359,7.698 0.21,0.233 0.57,0.255 0.805,0.045 0.135,-0.12 0.204,-0.298 0.188,-0.479 -0.147,-1.438 -0.973,-4.014 -1.757,-6.332 -0.465,-1.364 -0.615,-1.746 -0.908,-2.546 0.964,0.851 2.046,2.008 3.209,3.336 1.779,2.032 3.746,4.361 5.882,6.204 0.238,0.206 0.598,0.183 0.805,-0.058 0.102,-0.115 0.148,-0.268 0.139,-0.418 -0.176,-2.53 -1.304,-5.378 -2.622,-7.768 -0.611,-1.104 -1.264,-2.089 -1.895,-2.911 1.998,0.912 4.267,2.14 5.779,3.021 0.271,0.162 0.621,0.075 0.783,-0.194 0.105,-0.178 0.107,-0.396 0.007,-0.577 -0.739,-1.309 -3.035,-5.164 -7.504,-7.901 -2.793,-1.703 -6.436,-2.961 -11.043,-2.895 l 0,0 z" /><path
       id="path30-5_3_"
       inkscape:connector-curvature="0"
       d="m 69.974,645.258 c -1.438,-0.343 -4.104,-2.803 -7.238,-2.722 2.363,1.624 5.282,8.188 5.991,10.878 -1.685,-1.428 -8.576,-10.326 -10.188,-9.495 -0.033,2.746 1.799,6.047 2.582,8.858 -1.846,-2.128 -3.777,-4.329 -6.012,-6.137 -2.83,-2.292 -6.13,-3.917 -10.115,-3.743 -4.077,0.179 -6.806,2.973 -8.889,5.891 -1.607,2.255 -2.932,4.601 -4.134,6.021 0.146,-4.19 0.331,-5.318 2.314,-9.017 -3.494,2.032 -6.14,4.979 -8.9,7.834 -0.29,0.294 -0.546,0.521 -0.807,0.757 -0.715,-1.798 1.685,-5.58 3.058,-7.256 -1.772,0.272 -3.771,1.195 -5.019,1.85 5.763,-8.709 12.283,-9.865 22.018,-10.405 10.036,-3.51 19.379,-1.332 25.339,6.686 l 0,0 z"
       style="fill:#ffcc66" /><path
       id="path36-7_3_"
       inkscape:connector-curvature="0"
       d="m 56.027,592.904 c -4.729,-0.509 -6.224,0.035 -6.624,-2.149 -1.974,0.447 -3.633,-0.061 -4.217,-0.177 -1.226,0.208 -1.733,1.355 -4.507,-0.867 -0.708,-0.51 -0.201,0.827 0.157,1.974 -4.397,0.377 -14.696,-1.458 -14.771,13.854 0.139,0.236 0.213,0.585 0.248,1.117 0.036,0.533 0.042,1.255 0.047,2.206 0.01,1.608 0.024,2.492 0.155,3.251 0.131,0.758 0.365,1.385 0.823,2.481 0.295,0.707 0.574,1.53 0.808,2.38 -0.241,2.233 0.103,5.438 1.65,4.964 0.925,-0.282 2.941,-3.855 3.689,-4.238 0.807,-0.401 1.724,-0.8 2.655,-1.146 0.937,-0.35 1.878,-0.641 2.733,-0.827 1.643,-0.363 3.555,-0.609 5.575,-0.728 2.02,-0.115 4.15,-0.111 6.227,0 2.074,0.112 4.096,0.346 5.901,0.667 0.901,0.162 1.756,0.342 2.529,0.554 0.775,0.212 1.476,0.45 2.081,0.711 0.833,0.354 1.562,0.608 1.615,0.564 2.62,-3.214 2.509,-6.351 3.511,-9.81 0.24,-1.088 -0.104,-2.379 -0.017,-3.18 -0.104,-6.027 -5.737,-8.741 -10.268,-11.601 l 0,0 z"
       style="fill:#ffffff" /><path
       id="path38-1_3_"
       inkscape:connector-curvature="0"
       d="m 35.662,617.571 c 1.046,-0.413 2.12,-0.736 3.274,-0.982 1.157,-0.244 2.395,-0.405 3.789,-0.513 1.396,-0.104 2.94,-0.154 4.706,-0.146 1.986,0.008 3.749,0.072 5.312,0.188 1.562,0.115 2.926,0.288 4.146,0.527 1.221,0.24 2.297,0.544 3.261,0.924 0.967,0.38 1.818,0.827 2.609,1.363 0.736,0.5 1.233,0.887 1.692,1.407 0.459,0.521 0.877,1.18 1.489,2.215 0.695,1.172 1.07,1.815 1.273,2.446 0.203,0.634 0.24,1.249 0.295,2.405 0.045,0.955 0.045,1.663 -0.031,2.316 -0.076,0.651 -0.234,1.249 -0.479,2.009 -0.376,1.166 -0.814,2.224 -1.366,3.182 -0.552,0.958 -1.216,1.827 -1.988,2.625 -0.771,0.797 -1.647,1.519 -2.687,2.199 -1.036,0.682 -2.227,1.321 -3.571,1.938 -0.823,0.375 -1.588,0.687 -2.329,0.951 -0.741,0.268 -1.465,0.493 -2.221,0.676 -1.513,0.359 -3.143,0.573 -5.296,0.731 -1.956,0.089 -4.043,0.146 -6.118,0.073 -1.037,-0.035 -2.066,-0.104 -3.09,-0.22 -1.024,-0.116 -2.031,-0.275 -3.015,-0.499 -0.98,-0.226 -1.945,-0.507 -2.855,-0.865 -0.911,-0.358 -1.77,-0.798 -2.578,-1.319 -0.81,-0.521 -1.569,-1.136 -2.252,-1.848 -0.682,-0.711 -1.292,-1.521 -1.816,-2.448 -0.446,-0.815 -0.761,-1.503 -0.932,-2.111 -1.376,-4.259 -0.615,-1.19 -0.621,-3.693 -0.116,-0.101 0.053,-0.883 0.341,-1.788 0.289,-0.905 0.695,-1.924 1.012,-2.449 0.345,-0.575 1.24,-1.903 2.003,-2.947 l 1.383,-1.891 c 1.6,-1.779 2.06,-2.253 6.66,-4.456 l 0,0 z"
       style="fill:#ffaaaa" /><path
       id="path40-5_3_"
       inkscape:connector-curvature="0"
       d="m 24.156,626.717 c 1.769,-2.213 3.362,-3.531 3.616,-5.353 -6.547,-22.071 -2.613,-30.214 12.167,-29.897 0.13,-0.1 0.701,0.895 0.127,0.016 -1.529,-2.343 -2.817,-3.57 1.738,-1.79 0.673,0.263 1.315,0.605 1.496,0.611 0.182,0.005 0.479,-0.488 0.661,-1.098 0.251,-0.84 0.468,-1.104 0.9,-1.104 0.638,0 1.317,0.75 1.618,1.777 0.192,0.656 0.811,0.9 1.14,0.452 0.247,-0.336 3.959,-1.706 5.085,-1.317 0.888,0.306 -1.104,1.295 -1.595,2.165 -0.256,0.451 -0.39,0.927 -0.297,1.053 3.255,-0.937 6.882,0.104 9.961,1.31 2.95,1.423 6.42,5.12 7.037,11.244 -0.099,1.196 -0.686,3.761 -1.376,6.012 -0.73,2.391 -1.22,4.552 -1.244,5.521 -0.038,1.498 0.062,1.75 1.604,4.171 2.933,4.597 3.521,7.592 2.288,11.654 -1.574,5.188 -5.004,8.592 -11.12,11.028 -3.853,1.534 -6.089,1.893 -12.77,2.032 -6.068,-0.171 -12.144,-0.306 -17.952,-4.354 -4.621,-4.487 -4.932,-9.192 -3.084,-14.133 l 0,0 z m 23.432,17.067 c 4.311,-0.312 6.558,-0.843 9.852,-2.328 5.39,-2.429 8.114,-5.216 9.62,-9.833 0.49,-1.505 0.595,-2.394 0.505,-4.283 -0.107,-2.289 -0.173,-2.481 -1.562,-4.803 -1.229,-2.049 -1.713,-2.595 -3.188,-3.584 -3.165,-2.126 -7.377,-2.944 -15.321,-2.977 -7.062,-0.029 -10.655,0.727 -14.908,3.137 -1.016,0.574 -1.608,0.783 -1.687,0.592 -0.312,-0.795 4.568,-3.229 7.99,-3.983 6.571,-1.45 17.452,-0.859 22.312,1.212 0.833,0.354 1.558,0.607 1.609,0.562 0.051,-0.045 -0.035,-0.598 -0.193,-1.229 -0.16,-0.631 -0.242,-1.515 -0.185,-1.959 l 0.107,-0.812 0.474,0.858 c 0.312,0.562 0.521,0.729 0.604,0.491 2.769,-7.978 5.611,-13.728 -2.783,-18.989 -2.246,-1.151 -4.205,-2.928 -7.737,-2.729 -2.468,0.14 -3.603,0.47 -4.45,0.112 -0.215,-0.09 -0.067,-0.672 0.162,-1.138 0.345,-0.694 0.344,-0.812 -0.01,-0.812 -0.229,0 -0.851,0.324 -1.386,0.72 -1.059,0.78 -1.558,0.721 -1.717,-0.209 -0.153,-0.899 -0.83,-0.943 -0.83,-0.055 0,1.106 -0.455,1.147 -1.822,0.163 -1.415,-1.02 -2.612,-2.626 -1.754,-1.212 1.027,1.698 0.757,2.404 -1.867,2.351 -9.076,-0.188 -12.41,5.224 -12.932,11.771 -0.113,1.418 -0.039,2.385 -0.136,4.037 0.019,3.217 0.072,3.544 0.987,5.735 0.59,1.414 1.116,3.323 1.341,4.868 l 0.37,2.543 -1.385,1.878 c -0.761,1.033 -1.666,2.347 -2.011,2.914 -0.632,1.038 -1.585,4.005 -1.354,4.2 -0.066,2.82 0.699,3.843 1.562,5.739 4.199,7.362 13.899,7.403 21.723,7.052 l 0,0 z m -7.443,-17.291 c -0.471,-0.87 0.011,-2.281 0.987,-2.891 0.744,-0.465 0.825,-0.471 1.531,-0.08 0.929,0.513 0.996,1.646 0.166,2.792 -0.753,1.04 -2.167,1.134 -2.684,0.179 l 0,0 z m 17.626,-0.179 c -0.672,-0.707 -0.689,-1.438 -0.065,-2.521 0.482,-0.842 0.792,-1.097 1.321,-1.097 1.098,0 1.957,0.942 1.771,1.937 -0.286,1.502 -2.19,2.561 -3.027,1.681 l 0,0 z M 39.617,609.201 c -0.734,-0.618 -0.812,-2.805 -0.131,-3.625 1.416,-1.701 3.176,0.792 2.152,3.053 -0.514,1.142 -1.134,1.318 -2.021,0.572 l 0,0 z m 11.803,-1.149 c -1.09,-1.4 -0.811,-3.76 0.449,-3.76 0.762,0 1.41,0.896 1.633,2.248 0.32,1.962 -0.991,2.912 -2.082,1.512 l 0,0 z" /><g
       id="g42-2_3_"
       transform="matrix(1.2609,-0.19272,0.16828,1.2609,-137.04,61.835)"><path
         id="path44-3_3_"
         inkscape:connector-curvature="0"
         d="m 66.379,420.937 c 2.572,-0.409 1.042,6.464 5.441,9.539 4.166,2.908 8.201,2.18 6.915,5.334 -1.45,3.551 -7.875,0.531 -11.776,-4.483 -1.399,-2.897 -1.748,-10.084 -0.58,-10.39 l 0,0 z"
         style="fill:#ffcc66;stroke:#000000;stroke-width:1.99759996" /></g><path
       id="path46-8_3_"
       inkscape:connector-curvature="0"
       d="m 72.352,579.295 c -3.266,-0.814 -0.138,6.27 -5.44,10.603 -4.604,3.761 -12.29,2.008 -10.193,5.888 2.561,4.735 11,1.215 15.521,-4.411 2.051,-3.556 1.584,-11.555 0.112,-12.08 l 0,0 z"
       style="fill:#ffcc66;stroke:#000000;stroke-width:2.54439998" /><g
       id="g48-7_3_"
       transform="matrix(0.9593907,0,0,0.89651851,-203.87261,712.44006)"><path
         id="path50-2_3_"
         inkscape:connector-curvature="0"
         d="m 292.273,-131.683 c -1.347,-0.001 -2.728,0.178 -4.127,0.548 -1.397,0.369 -2.801,0.293 -4.175,0.998 -1.377,0.705 -2.735,1.567 -4.024,2.571 -1.286,1.003 -2.763,1.973 -3.885,3.235 -0.714,0.8 -1.601,1.632 -1.763,1.632 -2.691,1.868 -3.89,6.909 5.094,6.532 0.139,-0.181 0.356,-0.315 0.644,-0.423 0.288,-0.108 0.646,-0.182 1.114,-0.254 1.176,-0.173 3.108,-0.781 5.118,-1.559 2.01,-0.779 4.105,-1.724 5.57,-2.571 1.668,-0.964 3.002,-1.864 4.076,-2.742 1.071,-0.877 1.87,-1.733 2.452,-2.611 0.309,-0.465 0.554,-0.912 0.716,-1.329 0.162,-0.417 0.244,-0.813 0.261,-1.181 0.017,-0.368 -0.032,-0.696 -0.157,-1.011 -0.124,-0.316 -0.311,0.019 -0.574,-0.24 -0.263,-0.258 -0.592,-0.498 -0.99,-0.696 -0.397,-0.198 -0.863,-0.369 -1.393,-0.505 -1.063,-0.266 -2.39,-0.392 -3.957,-0.394 l 0,0 0,0 z"
         style="fill:#ffffff" /><path
         id="path52-1_3_"
         inkscape:connector-curvature="0"
         d="m 290.378,-127.044 c 0.922,-0.024 1.684,0.096 1.748,0.259 0.063,0.16 -0.196,0.716 -0.582,1.23 -0.203,0.272 -0.561,0.572 -1.034,0.89 -0.474,0.318 -1.074,0.65 -1.731,0.974 -1.319,0.643 -2.916,1.248 -4.451,1.649 -1.491,0.39 -2.631,0.635 -3.4,0.711 -0.383,0.039 -0.68,0.024 -0.873,-0.015 -0.192,-0.038 -0.29,-0.108 -0.29,-0.228 0,-0.172 0.174,-0.43 0.486,-0.728 0.312,-0.297 0.766,-0.634 1.311,-1.003 1.093,-0.74 2.573,-1.582 4.144,-2.299 1.219,-0.557 2.065,-0.901 2.769,-1.117 0.695,-0.213 1.253,-0.307 1.903,-0.323 l 0,0 z"
         style="fill:#ffaaaa" /><path
         id="path54-9_3_"
         inkscape:connector-curvature="0"
         d="m 280.775,-117.998 c 2.184,-0.27 8.028,-2.443 10.752,-3.744 3.102,-1.48 4.995,-2.759 6.08,-4.109 2.302,-2.86 0.156,-4.603 -5.67,-4.61 -5.005,0 -10.651,2.387 -14.837,6.271 -0.661,0.614 -1.322,1.119 -1.474,1.119 -1.777,-0.455 0.153,-1.924 1.324,-2.894 5.35,-4.997 13.489,-7.247 19.6,-5.418 1.716,0.513 2.452,1.012 3.063,2.073 1.047,1.826 -0.013,4.301 -2.679,6.241 -2.851,2.074 -11.713,5.68 -15.448,6.308 -1.207,0.702 -2.067,-0.751 -0.711,-1.237 l 0,0 z m -1.787,-2.357 c -1.766,-0.926 1.526,-4.062 6.61,-6.298 3.811,-1.673 6.306,-2.061 7.247,-1.119 0.747,0.746 0.446,1.968 -0.803,3.249 -1.689,1.729 -4.954,3.193 -9.029,4.042 -2.3,0.481 -3.288,0.513 -4.025,0.126 l 0,0 z m 5.244,-1.644 c 3.071,-0.801 6.408,-2.426 7.219,-3.516 0.385,-0.516 0.647,-1.071 0.584,-1.231 -0.064,-0.166 -0.819,-0.275 -1.744,-0.251 -1.3,0.034 -2.24,0.32 -4.678,1.436 -3.143,1.436 -5.94,3.329 -5.94,4.021 -10e-4,0.477 1.571,0.319 4.559,-0.459 z" /></g><g
       id="g56-9_3_"
       transform="matrix(0.9593907,0,0,0.89651851,-133.67601,684.42287)"><path
         id="path58-3_3_"
         inkscape:connector-curvature="0"
         d="m 170.113,-92.159 c -0.173,0 -1.681,-0.948 -3.347,-2.098 -1.805,-1.246 -3.661,-2.354 -5.445,-3.256 -1.781,-0.902 -3.493,-1.608 -5.019,-2.047 -0.896,-0.257 -1.808,-0.435 -2.671,-0.541 -0.863,-0.109 -1.676,-0.143 -2.42,-0.106 -0.741,0.037 -1.399,0.137 -1.927,0.315 -0.528,0.18 -0.925,0.439 -1.149,0.754 -0.21,0.293 -0.276,0.806 -0.204,1.416 0.073,0.61 0.269,1.315 0.592,1.976 0.214,0.44 0.604,0.974 1.096,1.539 0.496,0.571 1.106,1.182 1.744,1.749 0.632,0.571 1.291,1.11 1.927,1.557 0.635,0.45 1.244,0.798 1.741,1 1.238,0.495 3.515,1.193 5.63,1.767 2.115,0.573 4.068,1.025 4.682,1.032 0.594,0.009 1.049,-0.002 1.384,0.071 -0.808,0.156 8.549,1.98 3.386,-5.128 l 0,0 z"
         style="fill:#ffffff" /><path
         id="path60-7_3_"
         inkscape:connector-curvature="0"
         d="m 156.354,-95.465 c 0.657,-0.013 1.566,0.133 2.557,0.418 0.86,0.253 1.864,0.643 2.865,1.101 1.001,0.459 2.002,0.99 2.881,1.505 0.875,0.513 1.617,1.012 2.105,1.424 0.242,0.206 0.421,0.382 0.518,0.535 0.094,0.15 0.103,0.28 0.014,0.356 -0.242,0.211 -0.615,0.344 -1.004,0.404 -0.389,0.06 -0.789,0.045 -1.118,-0.083 -0.334,-0.125 -1.91,-0.582 -3.495,-1.002 -1.322,-0.352 -2.092,-0.574 -2.72,-0.89 -0.628,-0.316 -1.125,-0.725 -1.926,-1.44 -0.962,-0.858 -1.749,-1.688 -1.749,-1.845 0,-0.158 0.107,-0.277 0.292,-0.356 0.185,-0.078 0.451,-0.123 0.78,-0.127 l 0,0 z"
         style="fill:#e9afaf" /><path
         id="path62-1_3_"
         inkscape:connector-curvature="0"
         d="m 166.319,-86.168 -2.272,-0.341 c -5.532,-0.831 -10.799,-2.912 -13.335,-5.27 -2.094,-1.942 -3.066,-3.461 -3.281,-5.114 -0.14,-1.085 -0.056,-1.463 0.458,-2.048 0.918,-1.046 2.469,-1.609 4.433,-1.609 4.188,0 8.681,1.663 13.941,5.162 0.221,0.219 5.774,2.864 3.548,3.322 -0.165,0 -1.608,-0.875 -3.203,-1.94 -3.457,-2.307 -7.096,-4.087 -10.016,-4.898 -3.431,-0.952 -6.962,-0.781 -7.826,0.379 -0.401,0.541 -0.231,1.919 0.388,3.147 0.82,1.628 4.322,4.67 6.223,5.403 2.371,0.917 8.697,2.575 9.876,2.588 2.421,0.159 2.852,0.556 1.066,1.219 l 0,0 z m -4.87,-3.655 c -3.73,-1.291 -6.034,-2.689 -7.178,-4.356 -0.704,-1.028 -0.542,-1.876 0.416,-2.15 1.157,-0.33 3.482,-0.141 5.144,0.424 3.745,1.264 8.463,4.319 8.463,5.479 10e-4,1.512 -3.365,1.807 -6.845,0.603 l 0,0 z m 5.782,-0.381 c 0.694,-0.608 -4.95,-3.918 -8.388,-4.918 -1.983,-0.575 -3.619,-0.545 -3.619,0.071 0,0.158 0.787,0.988 1.749,1.845 1.601,1.429 1.99,1.623 4.636,2.328 1.59,0.425 3.163,0.872 3.494,1.001 0.657,0.25 1.639,0.099 2.128,-0.327 l 0,0 z" /></g></g><g
     id="g137"
     transform="translate(5.0681388,-565.80921)"><g
       id="g139"><path
         id="path28-0-2-1_4_"
         inkscape:connector-curvature="0"
         d="m 342.018,595.956 c -2.373,9.128 3.104,18.451 12.229,20.824 1.979,0.515 4.036,0.67 6.071,0.457"
         style="fill:none;stroke:#cc0000;stroke-width:0.75" /><path
         id="path30-3-6-8_4_"
         inkscape:connector-curvature="0"
         d="m 346.568,597.37 c -1.705,6.561 2.23,13.259 8.789,14.964 1.423,0.369 2.9,0.48 4.363,0.328"
         style="fill:none;stroke:#cc0000;stroke-width:0.75" /><path
         id="path32-2-1_4_"
         inkscape:connector-curvature="0"
         d="m 350.232,598.09 c -1.193,4.593 1.562,9.281 6.151,10.477 0.996,0.26 2.029,0.337 3.055,0.229"
         style="fill:none;stroke:#cc0000;stroke-width:0.75" /></g><g
       id="g4419-8_4_"
       transform="translate(299.56872,-239.65498)"
       style="stroke:none"><g
         id="g4475-1_4_"
         transform="translate(293.76076,-161.70597)"
         style="stroke:none"><g
           id="g25-9_4_"
           transform="matrix(0.03024175,0.00275705,-0.0047303,0.0301771,-414.97799,861.23457)"
           style="stroke:none"><path
             id="path27-6-1_4_"
             inkscape:connector-curvature="0"
             d="m 6485.191,3918.197 262.031,-154.743 -381.715,-209.323 -249.229,106.1 368.908,257.936 0.01,0.03 z"
             style="stroke:none" /><path
             id="path29-6_4_"
             inkscape:connector-curvature="0"
             d="m 6519.582,3656.813 -152.008,-84.716 -86.553,38.941 147.254,96.024 91.307,-50.249 0,0 z m -361.557,8.536 152.283,106.924 100.883,-55.72 -148.965,-97.26 -104.166,46.085 -0.035,-0.029 z m 269.44,61.722 -99.6,56.283 158.311,109.965 105.102,-59.924 -163.813,-106.324 0,0 z m 179.609,96.241 103.709,-59.958 -174.633,-97.439 -91.768,51.037 162.692,106.36 0,0 z"
             style="stroke:none" /></g><g
           id="g31-1_4_"
           transform="matrix(0.01997872,0.00821769,-0.01815877,0.03023895,-344.57356,826.35859)"
           style="stroke:none"><path
             id="path33-5_4_"
             inkscape:connector-curvature="0"
             d="m 7801.881,3235.664 261.998,-154.717 -355.357,-208.127 c -8.972,-4.117 -15.239,-5.418 -27.516,-2.953 L 7447.68,2971.32 c -5.979,4.016 -5.952,9.208 -2.138,15.179 l 356.339,249.165 0,0 z"
             style="stroke:none" /><path
             id="path35-0_4_"
             inkscape:connector-curvature="0"
             d="m 7839.831,2972.225 -145.252,-87.8 -96.806,44.071 147.225,96.047 94.833,-52.318 0,0 z m -364.998,10.578 152.288,106.942 100.829,-55.725 -148.919,-97.267 -104.175,46.074 -0.023,-0.024 z m 269.385,61.749 -99.605,56.264 158.305,109.958 105.084,-59.916 -163.784,-106.306 0,0 z m 179.559,96.237 103.742,-59.939 -171.094,-99.508 -95.324,53.067 162.676,106.38 0,0 z"
             style="stroke:none" /></g><path
           id="path37-9_4_"
           inkscape:connector-curvature="0"
           d="m -233.349,995.453 c -0.557,-0.491 -0.065,-0.909 0.431,-0.45 l 0.933,0.646 c 0.591,0.329 -0.158,0.938 -0.554,0.772 l -0.887,-0.909 0.077,-0.059 0,0 z"
           style="stroke:none" /><path
           id="path39-6_4_"
           inkscape:connector-curvature="0"
           d="m -231.855,1005.514 c 1.847,-1.184 1.453,-5.252 -0.42,-6.898 -1.467,-1.3 -3.356,-1.611 -4.646,-0.837 l 10.728,-5.188 c 1.417,-0.811 3.767,-1.137 5.411,0.502 1.072,1.068 1.667,4.021 -0.449,5.517 l -10.624,6.904 0,0 z"
           style="stroke:none" /><path
           id="path43-1_4_"
           inkscape:connector-curvature="0"
           d="m -237.193,998.008 c 1.396,-1.173 3.258,-0.929 4.877,0.506 2.021,1.826 2.631,5.994 0.036,7.275 -3.834,1.894 -8.146,-5.064 -4.913,-7.781 z"
           style="stroke:none" /><path
           id="path45-3_4_"
           inkscape:connector-curvature="0"
           enable-background="new    "
           d="m -231.855,1005.514 c 1.847,-1.184 1.453,-5.252 -0.42,-6.898 -1.467,-1.3 -3.356,-1.611 -4.646,-0.837 l 10.728,-5.188 c 1.417,-0.811 3.767,-1.137 5.411,0.502 1.072,1.068 1.667,4.021 -0.449,5.517 l -10.624,6.904 0,0 z"
           style="opacity:0.7;stroke:none" /><g
           id="g49-4_4_"
           transform="matrix(0.03470999,-0.00247128,0.00126494,0.04754631,-429.22925,861.8678)"
           style="stroke:none"><path
             id="path51-3_4_"
             inkscape:connector-curvature="0"
             d="m 5981.244,3561.189 262.033,-154.743 -381.703,-209.292 -249.26,106.072 368.93,257.943 0,0.02 z"
             style="stroke:none" /><path
             id="path53-4_4_"
             inkscape:connector-curvature="0"
             d="m 6022.076,3303.879 -158.453,-88.852 -86.555,38.962 150.477,97.701 94.531,-47.811 0,0 z m -367.996,4.433 152.279,106.914 103.031,-52.525 -151.137,-100.466 -104.173,46.077 z m 272.65,63.383 -102.797,54.612 158.303,109.958 105.074,-59.937 -160.58,-104.633 0,0 z m 176.393,94.57 103.725,-59.945 -164.963,-92.436 -97.146,50.059 158.384,102.322 0,0 z"
             style="stroke:none" /></g><g
           id="g55-6_4_"
           transform="matrix(0.0385441,9.9544929e-5,0.00724834,0.05237584,-461.87646,837.91784)"
           style="stroke:none"><path
             id="path57-0_4_"
             inkscape:connector-curvature="0"
             d="m 6101.879,3493.155 247.727,-174.694 c 4.188,-5.825 -2.168,-10.157 -8.604,-13.39 l -359.541,-58.643 -261.611,155.684 361.312,94.233 c 7.647,1.235 14.49,0.01 20.717,-3.19 l 0,0 z"
             style="stroke:none" /><path
             id="path59-1_4_"
             inkscape:connector-curvature="0"
             d="m 6131.248,3286.174 -148.602,-26.249 -90.979,55.755 146.57,33.282 92.984,-62.788 0.027,0 z m -368.764,107.896 151.203,40.432 106.508,-73.125 -148.254,-33.764 -109.434,66.456 -0.023,0 z m 273.905,-29.069 -105.225,73.178 157.236,41.092 111.057,-77.646 -163.068,-36.624 0,0 z m 179.836,24.119 102.855,-71.626 -170.117,-28.109 -94.645,62.717 161.907,37.018 0,0 z"
             style="stroke:none" /></g><path
           id="path61-5_4_"
           inkscape:connector-curvature="0"
           d="m -225.662,1002.308 c 0.781,0.66 1.329,-0.021 0.603,-0.608 l -1.066,-1.146 c -0.568,-0.743 -1.321,0.392 -1.021,0.899 l 1.17,0.808 0.122,-0.064 0.192,0.111 0,0 z"
           style="stroke:none" /></g></g></g><g
     id="text5436"
     transform="matrix(2.9769984,0,0,2.9769984,2137.8507,-970.49374)"><path
       id="path5441"
       inkscape:connector-curvature="0"
       d="m -657.051,357.319 c 0,0.495 -0.087,0.951 -0.261,1.367 -0.17,0.416 -0.406,0.775 -0.709,1.078 -0.302,0.299 -0.662,0.533 -1.078,0.703 -0.416,0.17 -0.868,0.255 -1.355,0.255 l -3.981,0 c -0.106,0 -0.204,-0.019 -0.295,-0.057 -0.091,-0.038 -0.17,-0.089 -0.238,-0.153 -0.064,-0.068 -0.115,-0.148 -0.153,-0.238 -0.038,-0.091 -0.057,-0.189 -0.057,-0.295 l 0,-6.646 c 0,-0.102 0.019,-0.198 0.057,-0.289 0.038,-0.091 0.089,-0.17 0.153,-0.238 0.068,-0.068 0.147,-0.121 0.238,-0.159 0.091,-0.038 0.189,-0.057 0.295,-0.057 l 3.981,0 c 0.488,0 0.94,0.085 1.355,0.255 0.416,0.17 0.775,0.406 1.078,0.709 0.302,0.299 0.539,0.658 0.709,1.078 0.174,0.416 0.261,0.869 0.261,1.361 l 0,1.326 0,0 z m -1.475,-1.327 c 0,-0.287 -0.047,-0.55 -0.142,-0.788 -0.091,-0.238 -0.221,-0.441 -0.391,-0.607 -0.17,-0.17 -0.374,-0.3 -0.612,-0.391 -0.235,-0.094 -0.495,-0.142 -0.783,-0.142 l -3.25,0 0,5.183 3.25,0 c 0.287,0 0.548,-0.045 0.783,-0.136 0.238,-0.095 0.443,-0.225 0.612,-0.391 0.17,-0.17 0.3,-0.373 0.391,-0.607 0.094,-0.238 0.142,-0.503 0.142,-0.794 l 0,-1.327 0,0 z"
       style="fill:#ffffff" /><path
       id="path5443"
       inkscape:connector-curvature="0"
       d="m -649.163,356.622 c 0,0.204 -0.036,0.425 -0.108,0.664 -0.072,0.234 -0.189,0.454 -0.352,0.658 -0.159,0.2 -0.369,0.369 -0.63,0.505 -0.257,0.136 -0.571,0.204 -0.941,0.204 l -2.66,0 0,-1.401 2.66,0 c 0.2,0 0.355,-0.06 0.465,-0.181 0.11,-0.125 0.164,-0.278 0.164,-0.459 0,-0.193 -0.062,-0.344 -0.187,-0.454 -0.121,-0.11 -0.269,-0.164 -0.443,-0.164 l -2.66,0 c -0.2,0 -0.355,0.062 -0.465,0.187 -0.11,0.121 -0.164,0.272 -0.164,0.454 l 0,2.058 c 0,0.197 0.06,0.35 0.181,0.459 0.125,0.11 0.278,0.165 0.459,0.165 l 2.649,0 0,1.407 -2.66,0 c -0.204,0 -0.425,-0.036 -0.664,-0.108 -0.234,-0.072 -0.454,-0.187 -0.658,-0.346 -0.2,-0.162 -0.369,-0.372 -0.505,-0.629 -0.136,-0.261 -0.204,-0.576 -0.204,-0.947 l 0,-2.07 c 0,-0.204 0.036,-0.423 0.108,-0.658 0.072,-0.238 0.187,-0.457 0.346,-0.658 0.163,-0.204 0.372,-0.374 0.63,-0.51 0.261,-0.136 0.577,-0.204 0.947,-0.204 l 2.66,0 c 0.204,0 0.423,0.036 0.658,0.108 0.238,0.072 0.457,0.189 0.658,0.352 0.204,0.159 0.374,0.369 0.51,0.629 0.138,0.255 0.206,0.568 0.206,0.939 l 0,0 z"
       style="fill:#ffffff" /><path
       id="path5445"
       inkscape:connector-curvature="0"
       d="m -640.843,354.592 c -0.166,0.518 -0.361,1.028 -0.584,1.531 -0.223,0.503 -0.48,0.983 -0.772,1.44 -0.287,0.454 -0.61,0.875 -0.97,1.265 -0.355,0.386 -0.751,0.72 -1.185,1.004 -0.431,0.28 -0.902,0.501 -1.412,0.664 -0.506,0.159 -1.057,0.238 -1.65,0.238 -0.102,0 -0.198,-0.019 -0.289,-0.057 -0.091,-0.038 -0.17,-0.089 -0.238,-0.153 -0.068,-0.068 -0.121,-0.145 -0.159,-0.232 -0.038,-0.091 -0.056,-0.187 -0.056,-0.289 l 0,-5.41 1.475,0 0,4.611 c 0.359,0 0.703,-0.077 1.032,-0.233 0.333,-0.155 0.647,-0.359 0.941,-0.612 0.295,-0.257 0.567,-0.548 0.817,-0.873 0.254,-0.325 0.478,-0.658 0.675,-0.998 0.197,-0.344 0.363,-0.681 0.499,-1.009 0.14,-0.329 0.244,-0.624 0.312,-0.885 l 1.564,0 0,-0.002 0,0 z"
       style="fill:#ffffff" /><path
       id="path5447"
       inkscape:connector-curvature="0"
       d="m -638.812,353.333 -1.475,0 0,-1.333 1.475,0 0,1.333 z m 0,7.389 -1.475,0 0,-6.131 1.475,0 0,6.131 z"
       style="fill:#ffffff" /><path
       id="path5449"
       inkscape:connector-curvature="0"
       d="m -631.468,360.722 -3.998,0 c -0.204,0 -0.427,-0.036 -0.669,-0.108 -0.242,-0.072 -0.467,-0.189 -0.675,-0.352 -0.204,-0.166 -0.376,-0.38 -0.516,-0.641 -0.136,-0.265 -0.204,-0.588 -0.204,-0.97 l 0,-1.996 c 0,-0.14 0.015,-0.287 0.045,-0.443 0.034,-0.155 0.085,-0.308 0.153,-0.459 0.068,-0.155 0.155,-0.302 0.261,-0.443 0.11,-0.14 0.24,-0.262 0.391,-0.368 0.155,-0.106 0.333,-0.191 0.533,-0.255 0.2,-0.064 0.427,-0.096 0.681,-0.096 l 3.998,0 0,1.475 -3.998,0 c -0.193,0 -0.34,0.049 -0.443,0.148 -0.098,0.098 -0.147,0.249 -0.147,0.453 l 0,1.985 c 0,0.193 0.051,0.34 0.153,0.442 0.102,0.102 0.251,0.153 0.448,0.153 l 3.987,0 0,1.475 0,0 z"
       style="fill:#ffffff" /><path
       id="path5451"
       inkscape:connector-curvature="0"
       d="m -623.688,356.622 c 0,0.204 -0.036,0.425 -0.108,0.664 -0.072,0.234 -0.189,0.454 -0.352,0.658 -0.159,0.2 -0.369,0.369 -0.63,0.505 -0.257,0.136 -0.571,0.204 -0.941,0.204 l -2.66,0 0,-1.401 2.66,0 c 0.2,0 0.356,-0.06 0.465,-0.181 0.11,-0.125 0.164,-0.278 0.164,-0.459 0,-0.193 -0.062,-0.344 -0.187,-0.454 -0.121,-0.11 -0.269,-0.164 -0.443,-0.164 l -2.66,0 c -0.2,0 -0.355,0.062 -0.465,0.187 -0.11,0.121 -0.164,0.272 -0.164,0.454 l 0,2.058 c 0,0.197 0.06,0.35 0.181,0.459 0.125,0.11 0.278,0.165 0.459,0.165 l 2.649,0 0,1.407 -2.66,0 c -0.204,0 -0.425,-0.036 -0.664,-0.108 -0.234,-0.072 -0.454,-0.187 -0.658,-0.346 -0.2,-0.162 -0.369,-0.372 -0.505,-0.629 -0.136,-0.261 -0.204,-0.576 -0.204,-0.947 l 0,-2.07 c 0,-0.204 0.036,-0.423 0.108,-0.658 0.072,-0.238 0.187,-0.457 0.346,-0.658 0.162,-0.204 0.372,-0.374 0.629,-0.51 0.261,-0.136 0.577,-0.204 0.947,-0.204 l 2.66,0 c 0.204,0 0.423,0.036 0.658,0.108 0.238,0.072 0.457,0.189 0.658,0.352 0.204,0.159 0.374,0.369 0.51,0.629 0.139,0.255 0.207,0.568 0.207,0.939 l 0,0 z"
       style="fill:#ffffff" /></g><g
     id="g297"
     transform="translate(5.0681388,-565.80921)"><path
       id="path4543-58"
       inkscape:connector-curvature="0"
       d="m 110.639,636.398 -16.811,0 c -0.433,0 -0.896,-0.047 -1.398,-0.143 -0.489,-0.107 -0.979,-0.271 -1.47,-0.484 -0.479,-0.215 -0.938,-0.489 -1.38,-0.824 -0.441,-0.347 -0.836,-0.759 -1.185,-1.234 -0.335,-0.49 -0.604,-1.054 -0.807,-1.688 -0.203,-0.645 -0.305,-1.367 -0.305,-2.168 l 0,-12.617 c 0,-0.431 0.048,-0.891 0.144,-1.38 0.107,-0.502 0.269,-0.992 0.484,-1.47 0.215,-0.49 0.495,-0.956 0.842,-1.398 0.347,-0.439 0.759,-0.83 1.236,-1.164 0.488,-0.347 1.052,-0.622 1.686,-0.823 0.633,-0.203 1.35,-0.307 2.15,-0.307 l 16.811,0 0,4.66 -16.81,0 c -0.609,0 -1.075,0.161 -1.398,0.483 -0.322,0.321 -0.483,0.801 -0.483,1.435 l 0,12.581 c 0,0.598 0.161,1.062 0.483,1.396 0.335,0.322 0.801,0.483 1.398,0.483 l 16.811,0 0.002,4.662 0,0 z" /><path
       id="path4545-0"
       inkscape:connector-curvature="0"
       d="m 135.425,629.857 c 0,0.801 -0.104,1.523 -0.305,2.169 -0.203,0.633 -0.474,1.194 -0.809,1.687 -0.334,0.478 -0.723,0.89 -1.164,1.234 -0.44,0.335 -0.906,0.609 -1.396,0.824 -0.479,0.215 -0.968,0.377 -1.472,0.484 -0.487,0.096 -0.954,0.144 -1.396,0.144 l -8.405,0 c -0.646,0 -1.351,-0.114 -2.115,-0.341 -0.765,-0.229 -1.476,-0.599 -2.133,-1.111 -0.646,-0.523 -1.188,-1.201 -1.631,-2.023 -0.43,-0.838 -0.646,-1.857 -0.646,-3.064 l 0,-6.309 c 0,-1.194 0.216,-2.204 0.646,-3.028 0.442,-0.837 0.985,-1.512 1.631,-2.025 0.657,-0.524 1.368,-0.9 2.133,-1.129 0.767,-0.228 1.472,-0.341 2.115,-0.341 l 8.405,0 c 1.194,0 2.21,0.215 3.047,0.646 0.836,0.432 1.511,0.976 2.024,1.633 0.515,0.645 0.885,1.35 1.109,2.112 0.239,0.767 0.358,1.478 0.358,2.135 l 0.004,6.303 0,0 z m -4.659,-6.27 c 0,-0.646 -0.161,-1.123 -0.482,-1.437 -0.322,-0.311 -0.788,-0.466 -1.397,-0.466 l -8.37,0 c -0.621,0 -1.093,0.161 -1.416,0.484 -0.322,0.311 -0.481,0.771 -0.481,1.38 l 0,6.309 c 0,0.609 0.159,1.075 0.481,1.398 0.323,0.32 0.795,0.481 1.416,0.481 l 8.37,0 c 0.633,0 1.104,-0.161 1.416,-0.481 0.311,-0.323 0.466,-0.789 0.466,-1.398 l -0.003,-6.27 0,0 z" /><path
       id="path4547-9"
       inkscape:connector-curvature="0"
       d="m 171.27,617.025 c -0.741,1.66 -1.541,3.298 -2.399,4.91 -0.86,1.602 -1.765,3.119 -2.707,4.553 -0.934,1.436 -1.89,2.76 -2.867,3.979 -0.979,1.207 -1.953,2.252 -2.921,3.137 -0.956,0.872 -1.896,1.559 -2.814,2.061 -0.908,0.49 -1.768,0.734 -2.58,0.734 -0.335,0 -0.646,-0.06 -0.933,-0.179 -0.286,-0.119 -0.537,-0.281 -0.753,-0.484 -0.215,-0.215 -0.382,-0.466 -0.501,-0.752 -0.12,-0.287 -0.182,-0.598 -0.182,-0.933 l 0,-8.691 -9.248,10.341 c -0.236,0.238 -0.502,0.418 -0.786,0.537 -0.275,0.107 -0.562,0.161 -0.86,0.161 -0.322,0 -0.627,-0.06 -0.914,-0.179 -0.274,-0.119 -0.52,-0.281 -0.734,-0.484 -0.216,-0.215 -0.389,-0.466 -0.521,-0.752 -0.119,-0.287 -0.179,-0.598 -0.179,-0.933 l 0,-17.025 4.657,0 0,11.04 9.284,-10.377 c 0.334,-0.335 0.729,-0.544 1.185,-0.628 0.466,-0.096 0.92,-0.048 1.36,0.144 0.442,0.182 0.788,0.467 1.039,0.86 0.265,0.383 0.396,0.807 0.396,1.271 l 0,11.076 c 1.004,-0.968 1.912,-1.988 2.725,-3.062 0.813,-1.075 1.564,-2.183 2.258,-3.315 0.705,-1.146 1.362,-2.307 1.974,-3.478 0.621,-1.185 1.225,-2.359 1.81,-3.53 l 5.211,-0.002 0,0 z" /><path
       id="path4549-53"
       inkscape:connector-curvature="0"
       d="m 196.665,615.358 -10.271,0 0,21.04 -4.659,0 0,-21.04 -10.288,0 0,-4.66 25.219,0 0,4.66 -0.001,0 z" /><path
       id="path4551-4"
       inkscape:connector-curvature="0"
       d="m 214.39,621.684 -10.484,0 c -0.633,0 -1.109,0.161 -1.434,0.484 -0.322,0.311 -0.483,0.771 -0.483,1.38 l 0,12.851 -4.658,0 0,-12.851 c 0,-0.803 0.102,-1.52 0.305,-2.15 0.203,-0.634 0.472,-1.189 0.807,-1.667 0.349,-0.49 0.74,-0.902 1.185,-1.236 0.44,-0.347 0.9,-0.628 1.38,-0.843 0.49,-0.215 0.979,-0.37 1.47,-0.466 0.502,-0.107 0.968,-0.161 1.398,-0.161 l 10.52,0 0,4.659 -0.006,0 0,0 z" /><path
       id="path4553-7"
       inkscape:connector-curvature="0"
       d="m 259.859,636.398 -12.635,0 c -0.646,0 -1.351,-0.113 -2.115,-0.34 -0.765,-0.229 -1.476,-0.598 -2.133,-1.111 -0.646,-0.523 -1.188,-1.201 -1.631,-2.023 -0.43,-0.837 -0.646,-1.857 -0.646,-3.064 l 0,-6.309 c 0,-0.442 0.048,-0.908 0.144,-1.398 0.107,-0.489 0.269,-0.974 0.484,-1.451 0.215,-0.49 0.487,-0.956 0.822,-1.396 0.349,-0.441 0.761,-0.83 1.236,-1.164 0.49,-0.335 1.052,-0.604 1.685,-0.809 0.636,-0.202 1.353,-0.305 2.151,-0.305 l 12.635,0 0,4.659 -12.635,0 c -0.609,0 -1.076,0.155 -1.396,0.466 -0.312,0.312 -0.468,0.789 -0.468,1.436 l 0,6.271 c 0,0.609 0.161,1.075 0.483,1.396 0.323,0.322 0.795,0.483 1.416,0.483 l 12.6,0 0.003,4.659 0,0 z" /><path
       id="path4555-8"
       inkscape:connector-curvature="0"
       d="m 286.509,636.398 -6.721,0 -9.394,-9.068 c -0.523,-0.478 -0.771,-1.073 -0.732,-1.792 0.021,-0.335 0.105,-0.646 0.251,-0.932 0.153,-0.299 0.362,-0.55 0.627,-0.753 l 8.513,-6.864 7.456,0 -10.969,8.836 10.969,10.573 0,0 z m -18.03,0 -4.659,0 0,-27.562 4.659,0 0,27.562 z" /><path
       id="path4557-0"
       inkscape:connector-curvature="0"
       d="m 293.857,613.047 -4.659,0 0,-4.212 4.659,0 0,4.212 z m 0,23.351 -4.659,0 0,-19.373 4.659,0 0,19.373 z" /><path
       id="path4559-3"
       inkscape:connector-curvature="0"
       d="m 319.772,636.398 -4.659,0 0,-10.753 c 0,-0.609 -0.105,-1.152 -0.323,-1.631 -0.201,-0.49 -0.481,-0.908 -0.842,-1.255 -0.356,-0.348 -0.783,-0.609 -1.271,-0.788 -0.479,-0.191 -0.998,-0.287 -1.562,-0.287 l -8.152,0 0,14.714 -4.66,0 0,-17.062 c 0,-0.322 0.06,-0.621 0.18,-0.896 0.119,-0.287 0.286,-0.532 0.502,-0.735 0.215,-0.215 0.466,-0.382 0.752,-0.502 0.287,-0.119 0.592,-0.179 0.914,-0.179 l 10.503,0 c 0.585,0 1.2,0.065 1.847,0.197 0.656,0.131 1.304,0.346 1.937,0.645 0.646,0.287 1.255,0.657 1.828,1.111 0.585,0.442 1.1,0.985 1.541,1.631 0.454,0.634 0.812,1.368 1.075,2.204 0.264,0.837 0.395,1.78 0.395,2.832 l 0,10.754 -0.005,0 z" /><path
       id="path4561-96"
       inkscape:connector-curvature="0"
       d="m 344.971,638.262 c 0,0.801 -0.104,1.518 -0.305,2.148 -0.203,0.646 -0.475,1.207 -0.809,1.688 -0.335,0.489 -0.724,0.901 -1.165,1.236 -0.44,0.347 -0.908,0.627 -1.396,0.842 -0.479,0.216 -0.97,0.371 -1.472,0.467 -0.487,0.106 -0.955,0.161 -1.396,0.161 l -8.405,0 0,-4.66 8.405,0 c 0.633,0 1.104,-0.161 1.416,-0.483 0.311,-0.321 0.466,-0.788 0.466,-1.396 l 0,-14.715 c 0,-0.609 -0.155,-1.069 -0.466,-1.38 -0.312,-0.322 -0.783,-0.484 -1.416,-0.484 l -8.405,0 c -0.574,0 -1.027,0.18 -1.362,0.538 -0.335,0.347 -0.502,0.789 -0.502,1.326 l 0,6.309 c 0,0.609 0.161,1.075 0.484,1.398 0.322,0.32 0.794,0.481 1.415,0.481 l 8.37,0 0,4.66 -8.405,0 c -0.442,0 -0.908,-0.048 -1.398,-0.144 -0.487,-0.107 -0.979,-0.271 -1.47,-0.484 -0.478,-0.215 -0.938,-0.489 -1.38,-0.824 -0.441,-0.347 -0.83,-0.759 -1.165,-1.234 -0.334,-0.49 -0.604,-1.053 -0.807,-1.687 -0.202,-0.646 -0.306,-1.368 -0.306,-2.169 l 0,-6.309 c 0,-0.442 0.049,-0.908 0.145,-1.398 0.105,-0.488 0.27,-0.974 0.484,-1.451 0.215,-0.488 0.487,-0.955 0.822,-1.396 0.349,-0.441 0.761,-0.83 1.236,-1.164 0.49,-0.335 1.052,-0.604 1.685,-0.808 0.636,-0.202 1.353,-0.306 2.151,-0.306 l 8.405,0 c 0.44,0 0.907,0.055 1.396,0.161 0.502,0.097 0.992,0.251 1.472,0.466 0.488,0.216 0.954,0.496 1.396,0.844 0.442,0.334 0.83,0.746 1.165,1.235 0.334,0.479 0.604,1.033 0.807,1.667 0.203,0.633 0.307,1.351 0.307,2.15 l 0.003,14.715 0,0 z" /></g><g
     id="g320"
     transform="translate(5.0681388,-565.80921)"><path
       id="path6-5-8_3_"
       inkscape:connector-curvature="0"
       d="m 210.618,629.094 23.109,0"
       style="fill:none;stroke:#000000;stroke-width:2.25" /><path
       id="path8-7-0_3_"
       inkscape:connector-curvature="0"
       d="m 214.709,623.164 15.952,0"
       style="fill:none;stroke:#000000;stroke-width:2.25" /><path
       id="path12-9-8_3_"
       inkscape:connector-curvature="0"
       d="m 222.787,593.1 0,0.102 c 0,2.706 0.63,26.271 -17.077,41.721"
       style="fill:none;stroke:#000000;stroke-width:2.8125" /><path
       id="path14-0-6_3_"
       inkscape:connector-curvature="0"
       d="m 222.738,593.047 0,0.104 c 0,2.706 -0.63,26.271 17.077,41.722"
       style="fill:none;stroke:#000000;stroke-width:2.8125" /><g
       id="g326"><path
         id="path4-5-0-5_4_"
         inkscape:connector-curvature="0"
         d="m 227.02,593.564 c -0.027,2.282 -1.901,4.107 -4.186,4.081 -2.282,-0.029 -4.109,-1.903 -4.081,-4.188 0.029,-2.281 1.901,-4.107 4.186,-4.081 2.268,0.029 4.085,1.876 4.081,4.143"
         style="fill:#cc0000;stroke:#cc0000;stroke-width:0.4632;stroke-linecap:round" /><path
         id="path18-8-2_4_"
         inkscape:connector-curvature="0"
         d="m 233.586,580.013 c 7.396,5.852 8.647,16.591 2.799,23.986 -1.271,1.604 -2.817,2.97 -4.568,4.025"
         style="fill:none;stroke:#cc0000;stroke-width:0.91670001;stroke-linecap:round" /><path
         id="path20-1-5_4_"
         inkscape:connector-curvature="0"
         d="m 230.809,583.883 c 5.315,4.205 6.216,11.924 2.011,17.237 -0.91,1.152 -2.021,2.133 -3.28,2.895"
         style="fill:none;stroke:#cc0000;stroke-width:0.91670001;stroke-linecap:round" /><path
         id="path22-1-3_4_"
         inkscape:connector-curvature="0"
         d="m 228.322,586.669 c 3.723,2.943 4.353,8.347 1.408,12.065 -0.639,0.808 -1.417,1.494 -2.299,2.025"
         style="fill:none;stroke:#cc0000;stroke-width:0.91670001;stroke-linecap:round" /><path
         id="path28-0-4-7_4_"
         inkscape:connector-curvature="0"
         d="m 212.811,580.054 c -7.396,5.852 -8.648,16.591 -2.799,23.986 1.271,1.604 2.816,2.97 4.568,4.025"
         style="fill:none;stroke:#cc0000;stroke-width:0.91670001;stroke-linecap:round" /><path
         id="path30-3-0-7_4_"
         inkscape:connector-curvature="0"
         d="m 215.588,583.924 c -5.315,4.205 -6.216,11.924 -2.011,17.237 0.91,1.152 2.021,2.133 3.28,2.895"
         style="fill:none;stroke:#cc0000;stroke-width:0.91670001;stroke-linecap:round" /><path
         id="path32-5-5_4_"
         inkscape:connector-curvature="0"
         d="m 218.075,586.711 c -3.723,2.942 -4.354,8.347 -1.408,12.065 0.639,0.808 1.417,1.493 2.299,2.025"
         style="fill:none;stroke:#cc0000;stroke-width:0.91670001;stroke-linecap:round" /></g><path
       id="path34-4-3_3_"
       inkscape:connector-curvature="0"
       d="m 217.588,616.739 10.688,0"
       style="fill:none;stroke:#000000;stroke-width:1.84169996" /></g></svg>