<?xml version="1.0" encoding="UTF-8" standalone="no"?>
<!-- Generator: Adobe Illustrator 16.0.4, SVG Export Plug-In . SVG Version: 6.00 Build 0)  -->

<svg
   xmlns:dc="http://purl.org/dc/elements/1.1/"
   xmlns:cc="http://creativecommons.org/ns#"
   xmlns:rdf="http://www.w3.org/1999/02/22-rdf-syntax-ns#"
   xmlns:svg="http://www.w3.org/2000/svg"
   xmlns="http://www.w3.org/2000/svg"
   xmlns:sodipodi="http://sodipodi.sourceforge.net/DTD/sodipodi-0.dtd"
   xmlns:inkscape="http://www.inkscape.org/namespaces/inkscape"
   version="1.1"
   id="svg2"
   sodipodi:docname="CowTracking_4.svg"
   inkscape:export-filename="/home/stefan/cow-Logos.jpg"
   inkscape:version="0.91 r13725"
   inkscape:export-ydpi="90"
   inkscape:export-xdpi="90"
   x="0px"
   y="0px"
   width="415"
   height="120"
   viewBox="0 0 415 120"
   enable-background="new 0 0 415 700"
   xml:space="preserve"><metadata
     id="metadata415"><rdf:RDF><cc:Work
         rdf:about=""><dc:format>image/svg+xml</dc:format><dc:type
           rdf:resource="http://purl.org/dc/dcmitype/StillImage" /><dc:title /></cc:Work></rdf:RDF></metadata><defs
     id="defs413" /><sodipodi:namedview
     inkscape:cy="279.60443"
     inkscape:cx="227.46362"
     inkscape:zoom="0.57887389"
     showgrid="false"
     guidetolerance="10"
     gridtolerance="10"
     objecttolerance="10"
     borderopacity="1"
     pagecolor="#ffffff"
     bordercolor="#666666"
     id="namedview72"
     inkscape:current-layer="svg2"
     inkscape:window-maximized="1"
     inkscape:window-y="27"
     inkscape:window-x="0"
     inkscape:window-height="1016"
     inkscape:window-width="1920"
     inkscape:pageshadow="2"
     inkscape:pageopacity="0"
     borderlayer="true" /><g
     id="flowRoot5428"
     transform="translate(0,-580)" /><g
     id="g4631-3-4-7"
     transform="translate(491.30798,-1108.2831)" /><g
     id="g26"
     transform="translate(6.0817666,-440.11937)"><path
       id="path27-9_2_"
       inkscape:connector-curvature="0"
       sodipodi:nodetypes="sscccsss"
       d="m 45.187,452.095 c -18.512,0 -33.459,14.962 -33.459,33.418 0,5.803 1.482,11.263 4.082,16.02 l 29.378,49.183 29.379,-49.183 c 2.601,-4.757 4.082,-10.217 4.082,-16.021 0,-18.456 -14.945,-33.418 -33.459,-33.418 l -0.003,0.001 z"
       style="fill:#e3001b;stroke:#000000;stroke-width:2.04220009" /><path
       id="path28-5_2_"
       inkscape:connector-curvature="0"
       d="m 51.626,507.751 c -2.727,0.039 -5.794,0.544 -9.209,1.689 -6.606,-1.385 -12.392,1.13 -16.543,4.286 -2.096,1.592 -3.787,3.35 -4.99,4.872 -0.604,0.762 -1.076,1.468 -1.427,2.069 -0.352,0.604 -0.582,1.085 -0.662,1.527 -0.053,0.311 0.156,0.605 0.467,0.659 0.128,0.021 0.26,-10e-4 0.374,-0.064 0,0 1.956,-1.017 3.734,-1.876 -1.071,1.816 -1.607,3.9 -2.292,6.773 -0.076,0.306 0.108,0.615 0.416,0.689 0.134,0.033 0.274,0.019 0.397,-0.047 0.715,-0.355 1.46,-1.041 2.311,-1.898 0.849,-0.86 1.773,-1.903 2.716,-2.945 0.963,-1.066 1.958,-2.128 2.869,-3.014 -0.225,0.713 -0.396,1.458 -0.52,2.23 -0.312,1.982 -0.389,4.069 -0.577,5.5 -0.038,0.312 0.187,0.599 0.497,0.635 0.138,0.019 0.271,-0.016 0.387,-0.092 2.002,-1.35 3.444,-4.479 5.458,-7.299 2.012,-2.818 4.432,-5.259 8.013,-5.416 3.65,-0.159 6.65,1.312 9.354,3.497 2.701,2.188 5.066,5.087 7.359,7.698 0.21,0.233 0.57,0.255 0.805,0.045 0.135,-0.12 0.204,-0.298 0.188,-0.479 -0.147,-1.438 -0.973,-4.014 -1.757,-6.332 -0.465,-1.364 -0.615,-1.746 -0.908,-2.546 0.964,0.851 2.046,2.008 3.209,3.336 1.779,2.032 3.746,4.361 5.882,6.204 0.238,0.206 0.598,0.183 0.805,-0.058 0.102,-0.115 0.148,-0.268 0.139,-0.418 -0.176,-2.53 -1.304,-5.378 -2.622,-7.768 -0.611,-1.104 -1.264,-2.089 -1.895,-2.911 1.998,0.912 4.267,2.14 5.779,3.021 0.271,0.162 0.621,0.075 0.783,-0.194 0.105,-0.178 0.107,-0.396 0.007,-0.577 -0.739,-1.309 -3.035,-5.164 -7.504,-7.901 -2.793,-1.703 -6.436,-2.961 -11.043,-2.895 l 0,0 z" /><path
       id="path30-5_2_"
       inkscape:connector-curvature="0"
       d="m 67.974,517.257 c -1.438,-0.343 -4.104,-2.803 -7.238,-2.722 2.363,1.624 5.282,8.188 5.991,10.878 -1.685,-1.428 -8.576,-10.326 -10.188,-9.495 -0.033,2.746 1.799,6.047 2.582,8.858 -1.846,-2.128 -3.777,-4.329 -6.012,-6.137 -2.83,-2.292 -6.13,-3.917 -10.115,-3.743 -4.077,0.179 -6.806,2.973 -8.889,5.891 -1.607,2.255 -2.932,4.601 -4.134,6.021 0.146,-4.19 0.331,-5.318 2.314,-9.017 -3.494,2.032 -6.14,4.979 -8.9,7.834 -0.29,0.294 -0.546,0.521 -0.807,0.757 -0.715,-1.798 1.685,-5.58 3.058,-7.256 -1.772,0.272 -3.771,1.195 -5.019,1.85 5.763,-8.709 12.283,-9.865 22.018,-10.405 10.036,-3.509 19.379,-1.331 25.339,6.686 l 0,0 z"
       style="fill:#ffcc66" /><path
       id="path36-7_2_"
       inkscape:connector-curvature="0"
       d="m 54.027,464.904 c -4.729,-0.509 -6.224,0.035 -6.624,-2.149 -1.974,0.447 -3.633,-0.061 -4.217,-0.177 -1.226,0.208 -1.733,1.355 -4.507,-0.867 -0.708,-0.51 -0.201,0.827 0.157,1.974 -4.397,0.377 -14.696,-1.458 -14.771,13.854 0.139,0.236 0.213,0.585 0.248,1.117 0.036,0.533 0.042,1.255 0.047,2.206 0.01,1.608 0.024,2.492 0.155,3.251 0.131,0.758 0.365,1.385 0.823,2.481 0.295,0.707 0.574,1.53 0.808,2.38 -0.241,2.233 0.103,5.438 1.65,4.964 0.925,-0.282 2.941,-3.855 3.689,-4.238 0.807,-0.401 1.724,-0.8 2.655,-1.146 0.937,-0.35 1.878,-0.641 2.733,-0.827 1.643,-0.363 3.555,-0.609 5.575,-0.728 2.02,-0.115 4.15,-0.111 6.227,0 2.074,0.112 4.096,0.346 5.901,0.667 0.901,0.162 1.756,0.342 2.529,0.554 0.775,0.212 1.476,0.45 2.081,0.711 0.833,0.354 1.562,0.608 1.615,0.564 2.62,-3.214 2.509,-6.351 3.511,-9.81 0.24,-1.088 -0.104,-2.379 -0.017,-3.18 -0.104,-6.027 -5.737,-8.741 -10.268,-11.601 l 0,0 z"
       style="fill:#ffffff" /><path
       id="path38-1_2_"
       inkscape:connector-curvature="0"
       d="m 33.662,489.571 c 1.046,-0.413 2.12,-0.736 3.274,-0.982 1.157,-0.244 2.395,-0.405 3.789,-0.513 1.396,-0.104 2.94,-0.154 4.706,-0.146 1.986,0.008 3.749,0.072 5.312,0.188 1.562,0.115 2.926,0.288 4.146,0.527 1.221,0.24 2.297,0.544 3.261,0.924 0.967,0.38 1.818,0.827 2.609,1.363 0.736,0.5 1.233,0.887 1.692,1.407 0.459,0.521 0.877,1.18 1.489,2.215 0.695,1.172 1.07,1.815 1.273,2.446 0.203,0.634 0.24,1.249 0.295,2.405 0.045,0.955 0.045,1.663 -0.031,2.316 -0.076,0.651 -0.234,1.249 -0.479,2.009 -0.376,1.166 -0.814,2.224 -1.366,3.182 -0.552,0.958 -1.216,1.827 -1.988,2.625 -0.771,0.797 -1.647,1.519 -2.687,2.199 -1.036,0.682 -2.227,1.321 -3.571,1.938 -0.823,0.375 -1.588,0.687 -2.329,0.951 -0.741,0.268 -1.465,0.493 -2.221,0.676 -1.513,0.359 -3.143,0.573 -5.296,0.731 -1.956,0.089 -4.043,0.146 -6.118,0.073 -1.037,-0.035 -2.066,-0.104 -3.09,-0.22 -1.024,-0.116 -2.031,-0.275 -3.015,-0.499 -0.98,-0.226 -1.945,-0.507 -2.855,-0.865 -0.911,-0.358 -1.77,-0.798 -2.578,-1.319 -0.81,-0.521 -1.569,-1.136 -2.252,-1.848 -0.682,-0.711 -1.292,-1.521 -1.816,-2.448 -0.446,-0.815 -0.761,-1.503 -0.932,-2.111 -1.376,-4.259 -0.615,-1.19 -0.621,-3.693 -0.116,-0.101 0.053,-0.883 0.341,-1.788 0.289,-0.905 0.695,-1.924 1.012,-2.449 0.345,-0.575 1.24,-1.903 2.003,-2.947 l 1.383,-1.891 c 1.6,-1.779 2.06,-2.253 6.66,-4.456 l 0,0 z"
       style="fill:#ffaaaa" /><path
       id="path40-5_2_"
       inkscape:connector-curvature="0"
       d="m 22.156,498.716 c 1.769,-2.213 3.362,-3.531 3.616,-5.353 -6.547,-22.071 -2.613,-30.214 12.167,-29.897 0.13,-0.1 0.701,0.895 0.127,0.016 -1.529,-2.343 -2.817,-3.57 1.738,-1.79 0.673,0.263 1.315,0.605 1.496,0.611 0.182,0.005 0.479,-0.488 0.661,-1.098 0.251,-0.84 0.468,-1.104 0.9,-1.104 0.638,0 1.317,0.75 1.618,1.777 0.192,0.656 0.811,0.9 1.14,0.452 0.247,-0.336 3.959,-1.706 5.085,-1.317 0.888,0.306 -1.104,1.295 -1.595,2.165 -0.256,0.451 -0.39,0.927 -0.297,1.053 3.255,-0.937 6.882,0.104 9.961,1.31 2.95,1.423 6.42,5.12 7.037,11.244 -0.099,1.196 -0.686,3.761 -1.376,6.012 -0.73,2.391 -1.22,4.552 -1.244,5.521 -0.038,1.498 0.062,1.75 1.604,4.171 2.933,4.597 3.521,7.592 2.288,11.654 -1.574,5.188 -5.004,8.592 -11.12,11.028 -3.853,1.534 -6.089,1.893 -12.77,2.032 -6.068,-0.171 -12.144,-0.306 -17.952,-4.354 -4.621,-4.486 -4.932,-9.191 -3.084,-14.133 l 0,0 z m 23.432,17.068 c 4.311,-0.312 6.558,-0.843 9.852,-2.328 5.39,-2.429 8.114,-5.216 9.62,-9.833 0.49,-1.505 0.595,-2.394 0.505,-4.283 -0.107,-2.289 -0.173,-2.481 -1.562,-4.803 -1.229,-2.049 -1.713,-2.595 -3.188,-3.584 -3.165,-2.126 -7.377,-2.944 -15.321,-2.977 -7.062,-0.029 -10.655,0.727 -14.908,3.137 -1.016,0.574 -1.608,0.783 -1.687,0.592 -0.312,-0.795 4.568,-3.229 7.99,-3.983 6.571,-1.45 17.452,-0.859 22.312,1.212 0.833,0.354 1.558,0.607 1.609,0.562 0.051,-0.045 -0.035,-0.598 -0.193,-1.229 -0.16,-0.631 -0.242,-1.515 -0.185,-1.959 l 0.107,-0.812 0.474,0.858 c 0.312,0.562 0.521,0.729 0.604,0.491 2.769,-7.978 5.611,-13.728 -2.783,-18.989 -2.246,-1.151 -4.205,-2.928 -7.737,-2.729 -2.468,0.14 -3.603,0.47 -4.45,0.112 -0.215,-0.09 -0.067,-0.672 0.162,-1.138 0.345,-0.694 0.344,-0.812 -0.01,-0.812 -0.229,0 -0.851,0.324 -1.386,0.72 -1.059,0.78 -1.558,0.721 -1.717,-0.209 -0.153,-0.899 -0.83,-0.943 -0.83,-0.055 0,1.106 -0.455,1.147 -1.822,0.163 -1.415,-1.02 -2.612,-2.626 -1.754,-1.212 1.027,1.698 0.757,2.404 -1.867,2.351 -9.076,-0.188 -12.41,5.224 -12.932,11.771 -0.113,1.418 -0.039,2.385 -0.136,4.037 0.019,3.217 0.072,3.544 0.987,5.735 0.59,1.414 1.116,3.323 1.341,4.868 l 0.37,2.543 -1.385,1.878 c -0.761,1.033 -1.666,2.347 -2.011,2.914 -0.632,1.038 -1.585,4.005 -1.354,4.2 -0.066,2.82 0.699,3.843 1.562,5.739 4.199,7.362 13.899,7.403 21.723,7.052 l 0,0 z m -7.443,-17.291 c -0.471,-0.87 0.011,-2.281 0.987,-2.891 0.744,-0.465 0.825,-0.471 1.531,-0.08 0.929,0.513 0.996,1.646 0.166,2.792 -0.753,1.04 -2.167,1.134 -2.684,0.179 l 0,0 z m 17.626,-0.179 c -0.672,-0.707 -0.689,-1.438 -0.065,-2.521 0.482,-0.842 0.792,-1.097 1.321,-1.097 1.098,0 1.957,0.942 1.771,1.937 -0.286,1.502 -2.19,2.561 -3.027,1.681 l 0,0 z M 37.617,481.201 c -0.734,-0.618 -0.812,-2.805 -0.131,-3.625 1.416,-1.701 3.176,0.792 2.152,3.053 -0.514,1.142 -1.134,1.318 -2.021,0.572 l 0,0 z m 11.803,-1.149 c -1.09,-1.4 -0.811,-3.76 0.449,-3.76 0.762,0 1.41,0.896 1.633,2.248 0.32,1.962 -0.991,2.912 -2.082,1.512 l 0,0 z" /><g
       id="g42-2_2_"
       transform="matrix(1.2609,-0.19272,0.16828,1.2609,-137.04,61.835)"><path
         id="path44-3_2_"
         inkscape:connector-curvature="0"
         d="m 78.102,321.214 c 2.572,-0.409 1.042,6.464 5.441,9.539 4.166,2.908 8.201,2.18 6.915,5.334 -1.45,3.551 -7.875,0.531 -11.776,-4.484 -1.399,-2.896 -1.748,-10.083 -0.58,-10.389 l 0,0 z"
         style="fill:#ffcc66;stroke:#000000;stroke-width:1.99759996" /></g><path
       id="path46-8_2_"
       inkscape:connector-curvature="0"
       d="m 70.352,451.295 c -3.266,-0.814 -0.138,6.27 -5.44,10.603 -4.604,3.761 -12.29,2.008 -10.193,5.888 2.561,4.735 11,1.215 15.521,-4.411 2.051,-3.556 1.584,-11.555 0.112,-12.08 l 0,0 z"
       style="fill:#ffcc66;stroke:#000000;stroke-width:2.54439998" /><g
       id="g48-7_2_"
       transform="matrix(0.9593907,0,0,0.89651851,-203.87261,712.44006)"><path
         id="path50-2_2_"
         inkscape:connector-curvature="0"
         d="m 290.188,-274.458 c -1.347,-10e-4 -2.728,0.178 -4.127,0.548 -1.397,0.369 -2.801,0.293 -4.175,0.998 -1.377,0.705 -2.735,1.568 -4.024,2.571 -1.286,1.003 -2.763,1.973 -3.885,3.235 -0.714,0.799 -1.601,1.632 -1.763,1.632 -2.691,1.868 -3.89,6.909 5.094,6.532 0.139,-0.181 0.356,-0.315 0.644,-0.423 0.288,-0.108 0.646,-0.182 1.114,-0.254 1.176,-0.173 3.108,-0.781 5.118,-1.559 2.01,-0.779 4.105,-1.724 5.57,-2.571 1.668,-0.964 3.002,-1.864 4.076,-2.742 1.071,-0.877 1.87,-1.733 2.452,-2.611 0.309,-0.465 0.554,-0.912 0.716,-1.329 0.162,-0.417 0.244,-0.813 0.261,-1.181 0.017,-0.368 -0.032,-0.696 -0.157,-1.011 -0.124,-0.316 -0.311,0.019 -0.574,-0.24 -0.263,-0.259 -0.592,-0.498 -0.99,-0.696 -0.397,-0.198 -0.863,-0.369 -1.393,-0.505 -1.063,-0.265 -2.39,-0.392 -3.957,-0.394 l 0,0 0,0 z"
         style="fill:#ffffff" /><path
         id="path52-1_2_"
         inkscape:connector-curvature="0"
         d="m 288.293,-269.819 c 0.922,-0.024 1.684,0.096 1.748,0.259 0.063,0.16 -0.196,0.716 -0.582,1.23 -0.203,0.272 -0.561,0.572 -1.034,0.89 -0.474,0.318 -1.074,0.65 -1.731,0.974 -1.319,0.643 -2.916,1.248 -4.451,1.649 -1.491,0.39 -2.631,0.635 -3.4,0.711 -0.383,0.039 -0.68,0.024 -0.873,-0.015 -0.192,-0.038 -0.29,-0.108 -0.29,-0.228 0,-0.172 0.174,-0.43 0.486,-0.728 0.312,-0.297 0.766,-0.634 1.311,-1.003 1.093,-0.74 2.573,-1.582 4.144,-2.299 1.219,-0.557 2.065,-0.901 2.769,-1.117 0.696,-0.212 1.254,-0.306 1.903,-0.323 l 0,0 z"
         style="fill:#ffaaaa" /><path
         id="path54-9_2_"
         inkscape:connector-curvature="0"
         d="m 278.69,-260.772 c 2.184,-0.27 8.028,-2.443 10.752,-3.744 3.102,-1.48 4.995,-2.759 6.08,-4.109 2.302,-2.86 0.156,-4.603 -5.67,-4.61 -5.005,0 -10.651,2.387 -14.837,6.271 -0.661,0.614 -1.322,1.119 -1.474,1.119 -1.777,-0.455 0.153,-1.924 1.324,-2.894 5.35,-4.997 13.489,-7.247 19.6,-5.418 1.716,0.513 2.452,1.012 3.063,2.073 1.047,1.826 -0.013,4.3 -2.679,6.24 -2.851,2.074 -11.713,5.68 -15.448,6.308 -1.206,0.703 -2.067,-0.75 -0.711,-1.236 l 0,0 z m -1.786,-2.357 c -1.766,-0.926 1.526,-4.062 6.61,-6.298 3.811,-1.673 6.306,-2.061 7.247,-1.119 0.747,0.746 0.446,1.968 -0.803,3.249 -1.689,1.729 -4.954,3.193 -9.029,4.042 -2.301,0.481 -3.288,0.512 -4.025,0.126 l 0,0 z m 5.243,-1.644 c 3.071,-0.801 6.408,-2.426 7.219,-3.516 0.385,-0.516 0.647,-1.071 0.584,-1.231 -0.064,-0.166 -0.819,-0.274 -1.744,-0.251 -1.3,0.034 -2.24,0.32 -4.678,1.436 -3.143,1.436 -5.94,3.329 -5.94,4.021 0,0.477 1.571,0.319 4.559,-0.459 z" /></g><g
       id="g56-9_2_"
       transform="matrix(0.9593907,0,0,0.89651851,-133.67601,684.42287)"><path
         id="path58-3_2_"
         inkscape:connector-curvature="0"
         d="m 168.028,-234.934 c -0.173,0 -1.681,-0.948 -3.347,-2.098 -1.805,-1.246 -3.661,-2.354 -5.445,-3.256 -1.781,-0.902 -3.493,-1.608 -5.019,-2.047 -0.896,-0.257 -1.808,-0.435 -2.671,-0.541 -0.863,-0.109 -1.676,-0.143 -2.42,-0.106 -0.741,0.037 -1.399,0.137 -1.927,0.315 -0.528,0.18 -0.925,0.439 -1.149,0.754 -0.21,0.293 -0.276,0.806 -0.204,1.416 0.073,0.61 0.269,1.315 0.592,1.976 0.214,0.44 0.604,0.974 1.096,1.539 0.496,0.571 1.106,1.182 1.744,1.749 0.632,0.571 1.291,1.11 1.927,1.557 0.635,0.45 1.244,0.798 1.741,1 1.238,0.495 3.515,1.193 5.63,1.767 2.115,0.573 4.068,1.025 4.682,1.032 0.594,0.009 1.049,-0.002 1.384,0.071 -0.808,0.157 8.549,1.981 3.386,-5.128 l 0,0 z"
         style="fill:#ffffff" /><path
         id="path60-7_2_"
         inkscape:connector-curvature="0"
         d="m 154.269,-238.24 c 0.657,-0.013 1.566,0.133 2.557,0.418 0.86,0.253 1.864,0.643 2.865,1.101 1.001,0.459 2.002,0.99 2.881,1.505 0.875,0.513 1.617,1.012 2.105,1.424 0.242,0.206 0.421,0.382 0.518,0.535 0.094,0.15 0.103,0.28 0.014,0.356 -0.242,0.211 -0.615,0.344 -1.004,0.404 -0.389,0.06 -0.789,0.045 -1.118,-0.083 -0.334,-0.125 -1.91,-0.582 -3.495,-1.002 -1.322,-0.352 -2.092,-0.574 -2.72,-0.89 -0.628,-0.316 -1.125,-0.725 -1.926,-1.44 -0.962,-0.858 -1.749,-1.688 -1.749,-1.845 0,-0.158 0.107,-0.277 0.292,-0.356 0.186,-0.078 0.451,-0.122 0.78,-0.127 l 0,0 z"
         style="fill:#e9afaf" /><path
         id="path62-1_2_"
         inkscape:connector-curvature="0"
         d="m 164.234,-228.943 -2.272,-0.341 c -5.532,-0.831 -10.799,-2.912 -13.335,-5.27 -2.094,-1.942 -3.066,-3.461 -3.281,-5.114 -0.14,-1.085 -0.056,-1.463 0.458,-2.048 0.918,-1.046 2.469,-1.609 4.433,-1.609 4.188,0 8.681,1.663 13.941,5.162 0.221,0.219 5.774,2.864 3.548,3.322 -0.165,0 -1.608,-0.875 -3.203,-1.94 -3.457,-2.307 -7.096,-4.087 -10.016,-4.898 -3.431,-0.952 -6.962,-0.781 -7.826,0.379 -0.401,0.541 -0.231,1.919 0.388,3.147 0.82,1.628 4.322,4.67 6.223,5.403 2.371,0.917 8.697,2.575 9.876,2.588 2.421,0.16 2.853,0.556 1.066,1.219 l 0,0 z m -4.869,-3.654 c -3.73,-1.291 -6.034,-2.689 -7.178,-4.356 -0.704,-1.028 -0.542,-1.876 0.416,-2.15 1.157,-0.33 3.482,-0.141 5.144,0.424 3.745,1.264 8.463,4.319 8.463,5.479 0,1.511 -3.366,1.807 -6.845,0.603 l 0,0 z m 5.781,-0.381 c 0.694,-0.608 -4.95,-3.918 -8.388,-4.918 -1.983,-0.575 -3.619,-0.545 -3.619,0.071 0,0.158 0.787,0.988 1.749,1.845 1.601,1.429 1.99,1.623 4.636,2.328 1.59,0.425 3.163,0.872 3.494,1.001 0.658,0.25 1.64,0.099 2.128,-0.327 l 0,0 z" /></g></g><g
     id="g165"
     transform="translate(6.0817666,-440.11937)"><path
       style="fill:none;stroke:#cc0000;stroke-width:0.75"
       d="m 342.018,470.956 c -2.373,9.128 3.104,18.451 12.229,20.824 1.979,0.515 4.036,0.67 6.071,0.457"
       inkscape:connector-curvature="0"
       id="path28-0-2-1_3_" /><path
       style="fill:none;stroke:#cc0000;stroke-width:0.75"
       d="m 346.568,472.37 c -1.705,6.561 2.23,13.259 8.789,14.964 1.423,0.369 2.9,0.48 4.363,0.328"
       inkscape:connector-curvature="0"
       id="path30-3-6-8_3_" /><path
       style="fill:none;stroke:#cc0000;stroke-width:0.75"
       d="m 350.232,473.09 c -1.193,4.593 1.562,9.281 6.151,10.477 0.996,0.26 2.029,0.337 3.055,0.229"
       inkscape:connector-curvature="0"
       id="path32-2-1_3_" /></g><g
     id="g4475-1_3_"
     transform="translate(599.41125,-841.48032)"
     style="stroke:none"><g
       id="g25-9_3_"
       transform="matrix(0.03024175,0.00275705,-0.0047303,0.0301771,-414.97799,861.23457)"
       style="stroke:none"><path
         id="path27-6-1_3_"
         inkscape:connector-curvature="0"
         d="m 5846.454,-165.674 262.03,-154.744 -381.714,-209.324 -249.229,106.102 368.908,257.934 0.01,0.032 z"
         style="stroke:none" /><path
         id="path29-6_3_"
         inkscape:connector-curvature="0"
         d="m 5880.844,-427.059 -152.008,-84.717 -86.552,38.941 147.253,96.025 91.307,-50.249 0,0 z m -361.557,8.536 152.283,106.923 100.883,-55.719 -148.964,-97.26 -104.166,46.084 -0.036,-0.028 z m 269.439,61.724 -99.599,56.281 158.312,109.965 105.102,-59.924 -163.815,-106.322 0,0 z m 179.611,96.238 103.708,-59.957 -174.633,-97.439 -91.767,51.035 162.692,106.361 0,0 z"
         style="stroke:none" /></g><g
       id="g31-1_3_"
       transform="matrix(0.01997872,0.00821769,-0.01815877,0.03023895,-344.57356,826.35859)"
       style="stroke:none"><path
         id="path33-5_3_"
         inkscape:connector-curvature="0"
         d="m 4788.941,-79.248 261.999,-154.719 -355.358,-208.125 c -8.972,-4.117 -15.239,-5.42 -27.515,-2.955 l -233.326,101.455 c -5.979,4.014 -5.953,9.207 -2.139,15.178 l 356.339,249.166 0,0 z"
         style="stroke:none" /><path
         id="path35-0_3_"
         inkscape:connector-curvature="0"
         d="m 4826.892,-342.689 -145.252,-87.799 -96.806,44.07 147.225,96.047 94.833,-52.318 0,0 z m -364.998,10.578 152.288,106.943 100.83,-55.725 -148.92,-97.268 -104.175,46.074 -0.023,-0.024 z m 269.385,61.75 -99.606,56.264 158.306,109.959 105.083,-59.918 -163.783,-106.305 0,0 z m 179.559,96.236 103.743,-59.939 -171.094,-99.508 -95.325,53.066 162.676,106.381 0,0 z"
         style="stroke:none" /></g><path
       id="path37-9_3_"
       inkscape:connector-curvature="0"
       d="m -233.349,870.453 c -0.557,-0.491 -0.065,-0.909 0.431,-0.45 l 0.933,0.646 c 0.591,0.329 -0.158,0.938 -0.554,0.772 l -0.887,-0.909 0.077,-0.059 0,0 z"
       style="stroke:none" /><path
       id="path39-6_3_"
       inkscape:connector-curvature="0"
       d="m -231.855,880.514 c 1.847,-1.184 1.453,-5.252 -0.42,-6.898 -1.467,-1.3 -3.356,-1.611 -4.646,-0.837 l 10.728,-5.188 c 1.417,-0.811 3.767,-1.137 5.411,0.502 1.072,1.068 1.667,4.021 -0.449,5.517 l -10.624,6.904 0,0 z"
       style="stroke:none" /><path
       id="path43-1_3_"
       inkscape:connector-curvature="0"
       d="m -237.193,873.008 c 1.396,-1.173 3.258,-0.929 4.877,0.506 2.021,1.826 2.631,5.994 0.036,7.275 -3.834,1.894 -8.146,-5.064 -4.913,-7.781 z"
       style="stroke:none" /><path
       id="path45-3_3_"
       inkscape:connector-curvature="0"
       enable-background="new    "
       d="m -231.855,880.514 c 1.847,-1.184 1.453,-5.252 -0.42,-6.898 -1.467,-1.3 -3.356,-1.611 -4.646,-0.837 l 10.728,-5.188 c 1.417,-0.811 3.767,-1.137 5.411,0.502 1.072,1.068 1.667,4.021 -0.449,5.517 l -10.624,6.904 0,0 z"
       style="opacity:0.7;stroke:none" /><g
       id="g49-4_3_"
       transform="matrix(0.03470999,-0.00247128,0.00126494,0.04754631,-429.22925,861.8678)"
       style="stroke:none"><path
         id="path51-3_3_"
         inkscape:connector-curvature="0"
         d="m 6076.877,937.127 262.033,-154.743 -381.703,-209.292 -249.258,106.071 368.93,257.943 0,0.021 z"
         style="stroke:none" /><path
         id="path53-4_3_"
         inkscape:connector-curvature="0"
         d="m 6117.709,679.817 -158.451,-88.853 -86.557,38.963 150.477,97.7 94.531,-47.81 0,0 z m -367.996,4.433 152.281,106.914 103.031,-52.525 -151.139,-100.467 -104.173,46.078 z m 272.652,63.382 -102.799,54.612 158.305,109.958 105.074,-59.937 -160.58,-104.633 0,0 z m 176.391,94.57 103.725,-59.945 -164.963,-92.436 -97.145,50.059 158.383,102.322 0,0 z"
         style="stroke:none" /></g><g
       id="g55-6_3_"
       transform="matrix(0.0385441,9.9544929e-5,0.00724834,0.05237584,-461.87646,837.91784)"
       style="stroke:none"><path
         id="path57-0_3_"
         inkscape:connector-curvature="0"
         d="m 6550.826,1105.708 247.727,-174.693 c 4.188,-5.825 -2.168,-10.157 -8.604,-13.39 l -359.543,-58.643 -261.609,155.684 361.312,94.232 c 7.647,1.236 14.491,0.01 20.717,-3.19 l 0,0 z"
         style="stroke:none" /><path
         id="path59-1_3_"
         inkscape:connector-curvature="0"
         d="m 6580.195,898.728 -148.602,-26.248 -90.979,55.754 146.57,33.283 92.984,-62.789 0.027,0 z m -368.765,107.895 151.205,40.433 106.508,-73.125 -148.254,-33.763 -109.434,66.455 -0.025,0 z m 273.906,-29.069 -105.227,73.179 157.238,41.093 111.057,-77.646 -163.068,-36.626 0,0 z m 179.836,24.12 102.855,-71.627 -170.117,-28.108 -94.645,62.717 161.907,37.018 0,0 z"
         style="stroke:none" /></g><path
       id="path61-5_3_"
       inkscape:connector-curvature="0"
       d="m -225.662,877.308 c 0.781,0.66 1.329,-0.021 0.603,-0.608 l -1.066,-1.146 c -0.568,-0.743 -1.321,0.392 -1.021,0.899 l 1.17,0.808 0.122,-0.064 0.192,0.111 0,0 z"
       style="stroke:none" /></g><path
     id="path4543-5"
     inkscape:connector-curvature="0"
     d="m 115.14077,68.65363 -16.811003,0 c -0.433,0 -0.896,-0.048 -1.398,-0.144 -0.489,-0.107 -0.979,-0.271 -1.469,-0.484 -0.479,-0.215 -0.938,-0.489 -1.381,-0.824 -0.441,-0.347 -0.836,-0.759 -1.185,-1.234 -0.334,-0.49 -0.604,-1.054 -0.807,-1.687 -0.203,-0.646 -0.305,-1.368 -0.305,-2.169 l 0,-12.617 c 0,-0.43 0.048,-0.89 0.144,-1.38 0.107,-0.502 0.271,-0.991 0.484,-1.47 0.215,-0.489 0.495,-0.956 0.842,-1.397 0.347,-0.44 0.759,-0.831 1.237,-1.165 0.487,-0.347 1.051,-0.621 1.685,-0.822 0.633,-0.203 1.35,-0.307 2.15,-0.307 l 16.811003,0 0,4.659 -16.810003,0 c -0.609,0 -1.075,0.161 -1.398,0.484 -0.322,0.32 -0.481,0.8 -0.481,1.434 l 0,12.581 c 0,0.598 0.159,1.063 0.481,1.398 0.335,0.32 0.801,0.481 1.398,0.481 l 16.811003,0 0.002,4.663 0,0 z" /><path
     id="path4545-5"
     inkscape:connector-curvature="0"
     d="m 139.92677,62.11163 c 0,0.801 -0.102,1.523 -0.305,2.169 -0.203,0.633 -0.474,1.194 -0.808,1.687 -0.335,0.478 -0.724,0.89 -1.165,1.234 -0.44,0.335 -0.906,0.609 -1.396,0.824 -0.479,0.216 -0.968,0.377 -1.47,0.484 -0.489,0.096 -0.955,0.144 -1.397,0.144 l -8.405,0 c -0.646,0 -1.351,-0.114 -2.113,-0.341 -0.766,-0.229 -1.478,-0.598 -2.135,-1.111 -0.645,-0.523 -1.188,-1.2 -1.631,-2.023 -0.43,-0.836 -0.646,-1.857 -0.646,-3.064 l 0,-6.309 c 0,-1.194 0.216,-2.204 0.646,-3.028 0.442,-0.837 0.986,-1.512 1.631,-2.025 0.657,-0.523 1.368,-0.9 2.135,-1.129 0.765,-0.228 1.47,-0.341 2.113,-0.341 l 8.405,0 c 1.194,0 2.21,0.215 3.047,0.646 0.836,0.43 1.511,0.974 2.025,1.631 0.514,0.645 0.884,1.35 1.108,2.112 0.239,0.767 0.358,1.478 0.358,2.135 l 0.003,6.305 0,0 z m -4.659,-6.272 c 0,-0.646 -0.161,-1.121 -0.482,-1.434 -0.322,-0.311 -0.788,-0.467 -1.397,-0.467 l -8.37,0 c -0.621,0 -1.093,0.162 -1.415,0.484 -0.323,0.311 -0.482,0.771 -0.482,1.38 l 0,6.309 c 0,0.609 0.159,1.075 0.482,1.398 0.322,0.32 0.794,0.481 1.415,0.481 l 8.37,0 c 0.633,0 1.105,-0.161 1.416,-0.481 0.312,-0.323 0.466,-0.789 0.466,-1.398 l -0.003,-6.272 0,0 z" /><path
     id="path4547-8"
     inkscape:connector-curvature="0"
     d="m 175.77177,49.27963 c -0.739,1.661 -1.541,3.298 -2.399,4.91 -0.86,1.602 -1.765,3.119 -2.706,4.553 -0.935,1.436 -1.891,2.76 -2.868,3.979 -0.979,1.207 -1.953,2.252 -2.921,3.137 -0.956,0.872 -1.896,1.559 -2.814,2.061 -0.906,0.49 -1.768,0.735 -2.58,0.735 -0.335,0 -0.646,-0.06 -0.933,-0.18 -0.286,-0.119 -0.537,-0.28 -0.752,-0.483 -0.216,-0.216 -0.383,-0.466 -0.502,-0.753 -0.12,-0.287 -0.18,-0.598 -0.18,-0.932 l 0,-8.692 -9.248,10.341 c -0.238,0.239 -0.501,0.418 -0.788,0.538 -0.274,0.107 -0.562,0.161 -0.86,0.161 -0.322,0 -0.627,-0.06 -0.914,-0.18 -0.272,-0.119 -0.52,-0.28 -0.733,-0.483 -0.217,-0.216 -0.39,-0.466 -0.521,-0.753 -0.119,-0.287 -0.179,-0.598 -0.179,-0.932 l 0,-17.026 4.66,0 0,11.04 9.281,-10.377 c 0.335,-0.335 0.729,-0.544 1.185,-0.627 0.466,-0.096 0.92,-0.048 1.36,0.143 0.442,0.182 0.789,0.469 1.039,0.86 0.266,0.383 0.396,0.807 0.396,1.271 l 0,11.075 c 1.004,-0.968 1.912,-1.987 2.725,-3.062 0.813,-1.075 1.564,-2.181 2.258,-3.315 0.705,-1.146 1.362,-2.307 1.974,-3.478 0.621,-1.185 1.225,-2.359 1.81,-3.53 l 5.21,-0.001 0,0 z" /><path
     id="path4549-8"
     inkscape:connector-curvature="0"
     d="m 201.16677,47.61263 -10.271,0 0,21.041 -4.659,0 0,-21.041 -10.286,0 0,-4.659 25.217,0 0,4.659 z" /><path
     id="path4551-05"
     inkscape:connector-curvature="0"
     d="m 218.89177,53.93863 -10.482,0 c -0.635,0 -1.11,0.162 -1.436,0.484 -0.322,0.311 -0.481,0.771 -0.481,1.38 l 0,12.851 -4.66,0 0,-12.851 c 0,-0.803 0.102,-1.52 0.305,-2.15 0.203,-0.634 0.472,-1.188 0.807,-1.667 0.349,-0.49 0.74,-0.902 1.185,-1.236 0.44,-0.347 0.9,-0.627 1.38,-0.843 0.49,-0.215 0.979,-0.37 1.47,-0.466 0.502,-0.107 0.968,-0.161 1.398,-0.161 l 10.52,0 0,4.659 -0.006,0 0,0 z" /><path
     id="path4553-3"
     inkscape:connector-curvature="0"
     d="m 264.36077,68.65363 -12.635,0 c -0.646,0 -1.351,-0.114 -2.115,-0.341 -0.764,-0.229 -1.476,-0.598 -2.133,-1.111 -0.645,-0.523 -1.188,-1.2 -1.631,-2.023 -0.43,-0.836 -0.645,-1.857 -0.645,-3.064 l 0,-6.309 c 0,-0.442 0.047,-0.908 0.143,-1.397 0.107,-0.49 0.271,-0.974 0.484,-1.452 0.215,-0.487 0.487,-0.956 0.822,-1.396 0.349,-0.442 0.761,-0.831 1.236,-1.165 0.49,-0.335 1.052,-0.604 1.687,-0.808 0.634,-0.202 1.351,-0.306 2.149,-0.306 l 12.635,0 0,4.659 -12.635,0 c -0.607,0 -1.075,0.156 -1.396,0.467 -0.312,0.312 -0.468,0.788 -0.468,1.436 l 0,6.271 c 0,0.609 0.161,1.075 0.484,1.398 0.322,0.32 0.794,0.481 1.415,0.481 l 12.6,0 0.003,4.66 0,0 z" /><path
     id="path4555-6"
     inkscape:connector-curvature="0"
     d="m 291.01077,68.65363 -6.721,0 -9.394,-9.068 c -0.523,-0.479 -0.771,-1.074 -0.732,-1.793 0.021,-0.334 0.105,-0.645 0.251,-0.932 0.153,-0.299 0.362,-0.55 0.627,-0.753 l 8.513,-6.864 7.456,0 -10.969,8.836 10.969,10.574 z m -18.03,0 -4.659,0 0,-27.564 4.659,0 0,27.564 z" /><path
     id="path4557-44"
     inkscape:connector-curvature="0"
     d="m 298.35877,45.30063 -4.657,0 0,-4.212 4.657,0 0,4.212 z m 0,23.353 -4.657,0 0,-19.374 4.657,0 0,19.374 z" /><path
     id="path4559-8"
     inkscape:connector-curvature="0"
     d="m 324.27377,68.65363 -4.659,0 0,-10.754 c 0,-0.609 -0.105,-1.152 -0.321,-1.631 -0.203,-0.489 -0.483,-0.908 -0.844,-1.254 -0.356,-0.349 -0.78,-0.609 -1.271,-0.789 -0.479,-0.191 -0.998,-0.287 -1.562,-0.287 l -8.152,0 0,14.715 -4.659,0 0,-17.062 c 0,-0.322 0.062,-0.621 0.179,-0.896 0.119,-0.287 0.287,-0.532 0.502,-0.735 0.215,-0.215 0.466,-0.382 0.753,-0.502 0.286,-0.119 0.591,-0.179 0.914,-0.179 l 10.502,0 c 0.585,0 1.201,0.065 1.848,0.197 0.655,0.131 1.303,0.347 1.936,0.646 0.646,0.286 1.255,0.656 1.828,1.11 0.586,0.442 1.1,0.986 1.542,1.631 0.453,0.634 0.812,1.368 1.075,2.205 0.263,0.836 0.394,1.78 0.394,2.831 l 0,10.754 -0.005,0 0,0 z" /><path
     id="path4561-3"
     inkscape:connector-curvature="0"
     d="m 349.47277,70.51663 c 0,0.801 -0.104,1.518 -0.305,2.149 -0.203,0.646 -0.475,1.206 -0.809,1.687 -0.335,0.489 -0.723,0.899 -1.165,1.236 -0.44,0.347 -0.908,0.627 -1.396,0.843 -0.479,0.215 -0.97,0.37 -1.471,0.466 -0.488,0.107 -0.956,0.161 -1.396,0.161 l -8.405,0 0,-4.66 8.405,0 c 0.634,0 1.104,-0.161 1.416,-0.483 0.311,-0.321 0.466,-0.789 0.466,-1.396 l 0,-14.714 c 0,-0.609 -0.155,-1.069 -0.466,-1.38 -0.312,-0.322 -0.782,-0.484 -1.416,-0.484 l -8.405,0 c -0.573,0 -1.027,0.18 -1.362,0.538 -0.335,0.347 -0.502,0.789 -0.502,1.326 l 0,6.309 c 0,0.609 0.161,1.075 0.484,1.398 0.322,0.32 0.794,0.481 1.416,0.481 l 8.369,0 0,4.66 -8.405,0 c -0.441,0 -0.908,-0.048 -1.396,-0.144 -0.489,-0.107 -0.979,-0.271 -1.471,-0.484 -0.479,-0.215 -0.938,-0.489 -1.381,-0.824 -0.439,-0.347 -0.83,-0.759 -1.165,-1.234 -0.334,-0.49 -0.603,-1.054 -0.806,-1.687 -0.203,-0.646 -0.305,-1.368 -0.305,-2.169 l 0,-6.309 c 0,-0.442 0.048,-0.908 0.143,-1.397 0.108,-0.49 0.27,-0.974 0.484,-1.452 0.215,-0.487 0.488,-0.956 0.822,-1.396 0.349,-0.442 0.761,-0.831 1.236,-1.165 0.49,-0.335 1.052,-0.604 1.686,-0.809 0.635,-0.201 1.352,-0.305 2.15,-0.305 l 8.405,0 c 0.44,0 0.908,0.054 1.396,0.161 0.501,0.096 0.991,0.251 1.471,0.466 0.488,0.216 0.956,0.496 1.396,0.843 0.442,0.334 0.83,0.746 1.165,1.236 0.334,0.479 0.604,1.033 0.807,1.667 0.203,0.633 0.307,1.351 0.307,2.15 l 0.003,14.715 0,0 z" /><g
     id="text5424"
     transform="translate(2.4135782,-450.41432)"><path
       id="path6640"
       inkscape:connector-curvature="0"
       d="m 174.501,542.715 c 0,0.929 -0.121,1.768 -0.362,2.517 -0.229,0.736 -0.537,1.388 -0.923,1.955 -0.389,0.567 -0.84,1.051 -1.358,1.448 -0.52,0.396 -1.057,0.725 -1.611,0.979 -0.556,0.253 -1.123,0.44 -1.7,0.562 -0.567,0.121 -1.104,0.182 -1.611,0.182 l -18.16,0 0,-4.708 18.16,0 c 0.905,0 1.604,-0.266 2.101,-0.797 0.509,-0.531 0.762,-1.243 0.762,-2.136 0,-0.437 -0.066,-0.833 -0.199,-1.195 -0.133,-0.362 -0.325,-0.676 -0.579,-0.94 -0.241,-0.267 -0.543,-0.472 -0.905,-0.615 -0.35,-0.146 -0.742,-0.217 -1.177,-0.217 l -10.829,0 c -0.761,0 -1.581,-0.135 -2.463,-0.398 -0.881,-0.277 -1.701,-0.718 -2.462,-1.321 -0.748,-0.604 -1.376,-1.395 -1.883,-2.372 -0.495,-0.978 -0.743,-2.173 -0.743,-3.585 0,-1.412 0.248,-2.602 0.743,-3.565 0.507,-0.979 1.135,-1.77 1.883,-2.371 0.761,-0.616 1.581,-1.058 2.462,-1.322 0.882,-0.276 1.702,-0.416 2.463,-0.416 l 16.023,0 0,4.707 -16.023,0 c -0.894,0 -1.594,0.271 -2.101,0.815 -0.495,0.543 -0.742,1.261 -0.742,2.152 0,0.905 0.247,1.623 0.742,2.154 0.507,0.521 1.207,0.778 2.101,0.778 l 10.827,0 0.036,0 c 0.507,0.013 1.044,0.085 1.61,0.218 0.566,0.121 1.13,0.312 1.685,0.579 0.567,0.266 1.104,0.604 1.612,1.014 0.507,0.398 0.951,0.882 1.339,1.449 0.396,0.566 0.713,1.219 0.94,1.955 0.227,0.732 0.342,1.565 0.342,2.494 l 0,0 z"
       style="fill:#ffffff" /><path
       id="path6642"
       inkscape:connector-curvature="0"
       d="m 198.98,537.265 c 0,0.65 -0.114,1.355 -0.344,2.118 -0.229,0.749 -0.604,1.446 -1.122,2.101 -0.507,0.641 -1.177,1.177 -2.01,1.611 -0.821,0.435 -1.823,0.65 -3.008,0.65 l -8.489,0 0,-4.473 8.489,0 c 0.642,0 1.137,-0.193 1.484,-0.579 0.353,-0.396 0.525,-0.888 0.525,-1.467 0,-0.615 -0.199,-1.099 -0.6,-1.448 -0.386,-0.351 -0.854,-0.523 -1.412,-0.523 l -8.489,0 c -0.643,0 -1.137,0.197 -1.485,0.598 -0.35,0.386 -0.524,0.869 -0.524,1.448 l 0,6.571 c 0,0.629 0.192,1.116 0.579,1.468 0.398,0.351 0.889,0.523 1.469,0.523 l 8.453,0 0,4.49 -8.489,0 c -0.652,0 -1.358,-0.115 -2.119,-0.345 -0.748,-0.229 -1.448,-0.598 -2.102,-1.104 -0.64,-0.52 -1.177,-1.188 -1.609,-2.01 -0.437,-0.833 -0.652,-1.841 -0.652,-3.022 l 0,-6.608 c 0,-0.651 0.115,-1.354 0.344,-2.101 0.229,-0.762 0.6,-1.462 1.104,-2.102 0.52,-0.651 1.188,-1.195 2.01,-1.63 0.833,-0.435 1.841,-0.651 3.024,-0.651 l 8.489,0 c 0.651,0 1.354,0.114 2.103,0.346 0.76,0.229 1.46,0.604 2.1,1.121 0.652,0.509 1.195,1.179 1.63,2.011 0.434,0.823 0.651,1.826 0.651,3.007 z"
       style="fill:#ffffff" /><path
       id="path6644"
       inkscape:connector-curvature="0"
       d="m 219.313,535.491 -10.592,0 c -0.642,0 -1.122,0.163 -1.448,0.489 -0.326,0.313 -0.489,0.778 -0.489,1.396 l 0,12.98 -4.707,0 0,-12.98 c 0,-0.811 0.104,-1.532 0.31,-2.175 0.205,-0.64 0.477,-1.198 0.812,-1.684 0.353,-0.495 0.749,-0.911 1.195,-1.249 0.446,-0.351 0.911,-0.634 1.395,-0.851 0.494,-0.22 0.989,-0.375 1.484,-0.474 0.507,-0.106 0.979,-0.162 1.412,-0.162 l 10.628,0 0,4.71 0,0 z"
       style="fill:#ffffff" /><path
       id="path6646"
       inkscape:connector-curvature="0"
       d="m 245.748,530.784 c -0.529,1.653 -1.15,3.283 -1.862,4.89 -0.713,1.604 -1.533,3.139 -2.463,4.6 -0.917,1.448 -1.949,2.794 -3.098,4.037 -1.135,1.229 -2.396,2.3 -3.782,3.205 -1.378,0.894 -2.881,1.6 -4.511,2.118 -1.617,0.507 -3.373,0.761 -5.269,0.761 -0.326,0 -0.634,-0.062 -0.924,-0.182 -0.289,-0.12 -0.543,-0.283 -0.762,-0.488 -0.218,-0.219 -0.387,-0.465 -0.507,-0.742 -0.121,-0.29 -0.182,-0.598 -0.182,-0.924 l 0,-17.272 4.708,0 0,14.722 c 1.146,0 2.245,-0.247 3.295,-0.742 1.062,-0.495 2.062,-1.146 3.006,-1.956 0.941,-0.82 1.812,-1.75 2.607,-2.788 0.809,-1.038 1.524,-2.102 2.152,-3.188 0.628,-1.099 1.158,-2.173 1.595,-3.223 0.445,-1.05 0.777,-1.992 0.995,-2.824 l 5.002,-0.004 0,0 z"
       style="fill:#ffffff" /><path
       id="path6648"
       inkscape:connector-curvature="0"
       d="m 268.507,537.265 c 0,0.65 -0.115,1.355 -0.347,2.118 -0.229,0.749 -0.604,1.446 -1.122,2.101 -0.507,0.641 -1.177,1.177 -2.01,1.611 -0.821,0.435 -1.823,0.65 -3.006,0.65 l -8.491,0 0,-4.473 8.491,0 c 0.64,0 1.135,-0.193 1.484,-0.579 0.351,-0.396 0.523,-0.888 0.523,-1.467 0,-0.615 -0.199,-1.099 -0.598,-1.448 -0.386,-0.351 -0.856,-0.523 -1.412,-0.523 l -8.491,0 c -0.64,0 -1.135,0.197 -1.483,0.598 -0.352,0.386 -0.524,0.869 -0.524,1.448 l 0,6.571 c 0,0.629 0.192,1.116 0.579,1.468 0.396,0.351 0.887,0.523 1.467,0.523 l 8.455,0 0,4.49 -8.491,0 c -0.65,0 -1.356,-0.115 -2.119,-0.345 -0.748,-0.229 -1.446,-0.598 -2.1,-1.104 -0.64,-0.52 -1.177,-1.188 -1.611,-2.01 -0.435,-0.833 -0.65,-1.841 -0.65,-3.022 l 0,-6.608 c 0,-0.651 0.113,-1.354 0.345,-2.101 0.229,-0.762 0.597,-1.462 1.104,-2.102 0.521,-0.651 1.189,-1.195 2.012,-1.63 0.833,-0.435 1.841,-0.651 3.022,-0.651 l 8.491,0 c 0.652,0 1.354,0.114 2.103,0.346 0.761,0.229 1.46,0.604 2.101,1.121 0.651,0.509 1.194,1.179 1.629,2.011 0.432,0.823 0.649,1.826 0.649,3.007 z"
       style="fill:#ffffff" /><path
       id="path6650"
       inkscape:connector-curvature="0"
       d="m 288.839,535.491 -10.594,0 c -0.64,0 -1.122,0.163 -1.446,0.489 -0.326,0.313 -0.488,0.778 -0.488,1.396 l 0,12.98 -4.708,0 0,-12.98 c 0,-0.811 0.103,-1.532 0.308,-2.175 0.205,-0.64 0.479,-1.198 0.815,-1.684 0.35,-0.495 0.748,-0.911 1.194,-1.249 0.445,-0.351 0.909,-0.634 1.395,-0.851 0.495,-0.22 0.989,-0.375 1.484,-0.474 0.507,-0.106 0.978,-0.162 1.412,-0.162 l 10.628,0 0,4.71 0,0 z"
       style="fill:#ffffff" /></g><g
     id="g336"
     transform="translate(6.0817666,-440.11937)"><path
       id="path6-5-8_2_"
       inkscape:connector-curvature="0"
       d="m 209.618,502.094 23.109,0"
       style="fill:none;stroke:#000000;stroke-width:2.25" /><path
       id="path8-7-0_2_"
       inkscape:connector-curvature="0"
       d="m 213.709,496.164 15.952,0"
       style="fill:none;stroke:#000000;stroke-width:2.25" /><path
       id="path12-9-8_2_"
       inkscape:connector-curvature="0"
       d="m 221.787,466.1 0,0.102 c 0,2.706 0.63,26.271 -17.077,41.721"
       style="fill:none;stroke:#000000;stroke-width:2.8125" /><path
       id="path14-0-6_2_"
       inkscape:connector-curvature="0"
       d="m 221.738,466.047 0,0.104 c 0,2.706 -0.63,26.271 17.077,41.722"
       style="fill:none;stroke:#000000;stroke-width:2.8125" /><g
       id="g342"><path
         id="path4-5-0-5_3_"
         inkscape:connector-curvature="0"
         d="m 226.02,466.564 c -0.027,2.282 -1.901,4.107 -4.186,4.081 -2.282,-0.029 -4.109,-1.903 -4.081,-4.188 0.029,-2.281 1.901,-4.107 4.186,-4.081 2.268,0.029 4.085,1.876 4.081,4.143"
         style="fill:#cc0000;stroke:#cc0000;stroke-width:0.4632;stroke-linecap:round" /><path
         id="path18-8-2_3_"
         inkscape:connector-curvature="0"
         d="m 232.586,453.013 c 7.396,5.852 8.647,16.591 2.799,23.986 -1.271,1.604 -2.817,2.97 -4.568,4.025"
         style="fill:none;stroke:#cc0000;stroke-width:0.91670001;stroke-linecap:round" /><path
         id="path20-1-5_3_"
         inkscape:connector-curvature="0"
         d="m 229.809,456.883 c 5.315,4.205 6.216,11.924 2.011,17.237 -0.91,1.152 -2.021,2.133 -3.28,2.895"
         style="fill:none;stroke:#cc0000;stroke-width:0.91670001;stroke-linecap:round" /><path
         id="path22-1-3_3_"
         inkscape:connector-curvature="0"
         d="m 227.322,459.669 c 3.723,2.943 4.353,8.347 1.408,12.065 -0.639,0.808 -1.417,1.494 -2.299,2.025"
         style="fill:none;stroke:#cc0000;stroke-width:0.91670001;stroke-linecap:round" /><path
         id="path28-0-4-7_3_"
         inkscape:connector-curvature="0"
         d="m 211.811,453.054 c -7.396,5.852 -8.648,16.591 -2.799,23.986 1.271,1.604 2.816,2.97 4.568,4.025"
         style="fill:none;stroke:#cc0000;stroke-width:0.91670001;stroke-linecap:round" /><path
         id="path30-3-0-7_3_"
         inkscape:connector-curvature="0"
         d="m 214.588,456.924 c -5.315,4.205 -6.216,11.924 -2.011,17.237 0.91,1.152 2.021,2.133 3.28,2.895"
         style="fill:none;stroke:#cc0000;stroke-width:0.91670001;stroke-linecap:round" /><path
         id="path32-5-5_3_"
         inkscape:connector-curvature="0"
         d="m 217.075,459.711 c -3.723,2.942 -4.354,8.347 -1.408,12.065 0.639,0.808 1.417,1.493 2.299,2.025"
         style="fill:none;stroke:#cc0000;stroke-width:0.91670001;stroke-linecap:round" /></g><path
       id="path34-4-3_2_"
       inkscape:connector-curvature="0"
       d="m 216.588,489.739 10.688,0"
       style="fill:none;stroke:#000000;stroke-width:1.84169996" /></g></svg>